<?xml version="1.0" standalone="no"?><!DOCTYPE svg PUBLIC "-//W3C//DTD SVG 1.1//EN" "http://www.w3.org/Graphics/SVG/1.1/DTD/svg11.dtd"><svg height="1024" node-id="1" sillyvg="true" template-height="1024" template-width="1024" version="1.1" viewBox="0 0 1024 1024" width="1024" xmlns="http://www.w3.org/2000/svg" xmlns:xlink="http://www.w3.org/1999/xlink"><defs node-id="85"></defs><path d="M 0.00 0.00 L 1024.00 0.00 L 1024.00 1024.00 L 0.00 1024.00 Z" fill="#ffffff" fill-rule="nonzero" hidden="true" node-id="87" stroke="none" target-height="1024" target-width="1024" target-x="0" target-y="0" visibility="hidden"></path><path d="M 827.20 158.90 L 832.50 160.80 L 834.90 162.10 L 836.90 163.70 L 840.00 167.80 L 841.80 172.60 L 842.30 177.60 L 841.30 182.60 L 840.30 184.80 L 838.90 186.80 L 837.10 188.60 L 834.90 190.10 L 832.30 191.20 L 825.10 193.20 L 817.70 194.70 L 810.20 195.90 L 802.60 196.70 L 795.10 197.10 L 787.50 197.00 L 779.90 196.40 L 772.50 195.30 L 765.20 193.70 L 773.30 192.60 L 806.10 190.30 L 814.20 189.40 L 824.80 187.20 L 830.00 185.60 L 832.10 184.10 L 833.50 182.60 L 834.40 181.10 L 835.10 177.60 L 834.90 175.70 L 834.10 172.90 L 832.90 169.90 L 827.20 158.90 Z" fill="#311728" fill-rule="nonzero" node-id="89" stroke="none" target-height="38.200012" target-width="77.099976" target-x="765.2" target-y="158.9"></path><path d="M 661.20 72.00 L 673.50 73.70 L 685.60 76.40 L 687.20 80.70 L 688.30 85.00 L 688.90 89.40 L 689.10 93.70 L 688.70 99.60 L 687.70 105.40 L 686.10 111.10 L 683.90 116.70 L 681.30 122.10 L 678.20 127.30 L 674.80 132.30 L 671.00 136.80 L 667.00 141.00 L 675.90 115.60 L 678.40 107.00 L 680.70 95.30 L 681.30 89.30 L 681.10 86.70 L 680.50 84.50 L 679.40 82.60 L 676.20 79.60 L 674.20 78.30 L 661.20 72.00 Z" fill="#442031" fill-rule="nonzero" node-id="91" stroke="none" target-height="69" target-width="27.899963" target-x="661.2" target-y="72"></path><path d="M 747.60 88.00 L 754.60 87.60 L 761.70 87.90 L 765.00 88.70 L 768.10 90.10 L 771.70 93.00 L 773.20 95.10 L 773.90 99.70 L 773.90 104.20 L 773.40 108.60 L 772.30 112.90 L 770.90 117.10 L 769.10 121.20 L 765.80 127.20 L 762.00 132.90 L 754.00 143.80 L 747.80 150.70 L 741.00 157.30 L 736.00 161.00 L 730.50 163.40 L 727.50 164.10 L 724.20 164.40 L 731.90 157.60 L 739.50 150.20 L 748.80 139.80 L 753.00 134.20 L 756.80 128.40 L 760.10 122.40 L 762.80 116.10 L 764.40 111.20 L 765.70 106.20 L 766.50 101.10 L 766.90 95.70 L 747.60 88.00 Z" fill="#442031" fill-rule="nonzero" node-id="93" stroke="none" target-height="76.799995" target-width="49.700012" target-x="724.2" target-y="87.6"></path><path d="M 211.10 267.10 L 215.70 269.90 L 220.40 274.50 L 222.80 277.70 L 229.20 288.10 L 235.80 297.60 L 250.40 315.20 L 255.10 321.20 L 259.30 327.60 L 255.50 326.50 L 252.00 325.00 L 245.50 321.10 L 239.70 316.10 L 231.90 307.50 L 224.70 298.50 L 221.50 293.70 L 215.70 283.70 L 213.40 278.40 L 212.30 274.80 L 211.10 267.10 Z" fill="#442031" fill-rule="nonzero" node-id="95" stroke="none" target-height="60.5" target-width="48.19998" target-x="211.1" target-y="267.1"></path><path d="M 191.10 316.80 L 197.30 318.00 L 203.40 319.70 L 209.40 322.00 L 215.20 324.70 L 226.40 331.10 L 234.30 336.70 L 241.60 342.70 L 234.50 342.00 L 227.00 340.80 L 222.10 339.60 L 212.50 336.20 L 208.00 334.00 L 203.80 331.40 L 199.90 328.40 L 197.30 325.90 L 192.90 320.10 L 191.10 316.80 Z" fill="#442031" fill-rule="nonzero" node-id="97" stroke="none" target-height="25.900024" target-width="50.5" target-x="191.1" target-y="316.8"></path><path d="M 530.10 416.90 L 554.90 417.30 L 579.70 418.20 L 620.30 423.00 L 637.10 425.40 L 640.30 426.30 L 643.40 427.60 L 647.80 430.10 L 652.10 433.00 L 640.20 432.40 L 607.90 427.40 L 599.10 426.60 L 593.20 426.50 L 587.30 426.80 L 581.40 427.70 L 572.90 425.90 L 564.40 424.60 L 555.80 423.70 L 529.90 421.90 L 530.10 416.90 Z" fill="#442031" fill-rule="nonzero" node-id="99" stroke="none" target-height="16.100006" target-width="122.19995" target-x="529.9" target-y="416.9"></path><path d="M 551.00 445.30 L 557.80 447.90 L 571.00 453.70 L 583.60 460.60 L 589.80 464.50 L 596.30 470.70 L 602.40 477.30 L 608.20 484.10 L 613.60 491.30 L 618.50 498.70 L 623.10 506.30 L 627.30 514.20 L 631.10 522.30 L 634.40 530.60 L 637.30 539.00 L 639.90 547.60 L 642.00 556.30 L 643.60 565.20 L 644.90 574.00 L 645.60 582.90 L 646.00 591.90 L 644.00 589.40 L 642.50 575.80 L 640.40 562.30 L 638.00 552.80 L 635.10 543.50 L 631.60 534.30 L 627.60 525.40 L 623.10 516.70 L 618.00 508.30 L 613.60 501.90 L 608.90 495.80 L 603.90 489.90 L 593.20 479.00 L 578.60 466.30 L 551.00 445.30 Z" fill="#442031" fill-rule="nonzero" node-id="101" stroke="none" target-height="146.60004" target-width="95" target-x="551" target-y="445.3"></path><path d="M 397.40 448.80 L 399.80 454.60 L 401.60 460.50 L 402.90 466.50 L 404.30 478.70 L 404.50 484.80 L 404.20 494.10 L 403.40 503.30 L 401.00 521.70 L 402.20 529.50 L 404.20 537.40 L 405.70 541.10 L 407.70 544.40 L 409.40 546.30 L 411.40 548.00 L 416.90 551.00 L 419.90 552.00 L 423.00 552.70 L 426.20 552.90 L 430.40 552.70 L 434.60 552.00 L 438.80 550.80 L 446.80 547.40 L 467.20 535.20 L 469.00 537.90 L 467.10 541.10 L 462.50 546.60 L 458.50 550.40 L 454.20 553.80 L 445.40 560.20 L 429.20 560.20 L 423.80 559.60 L 416.80 558.00 L 410.50 555.20 L 407.50 553.20 L 402.00 547.60 L 399.80 544.30 L 398.10 540.70 L 396.90 537.00 L 396.10 533.10 L 395.70 529.10 L 395.90 521.00 L 397.60 509.50 L 398.90 494.40 L 399.10 483.00 L 398.80 471.60 L 397.40 448.80 Z" fill="#442031" fill-rule="nonzero" node-id="103" stroke="none" target-height="111.400024" target-width="73.29999" target-x="395.7" target-y="448.8"></path><path d="M 590.20 451.90 L 598.90 460.80 L 607.90 469.30 L 635.80 494.20 L 654.00 511.10 L 662.50 520.10 L 667.90 526.40 L 678.00 539.70 L 675.20 539.10 L 664.70 530.10 L 624.30 492.50 L 614.00 483.30 L 599.80 471.70 L 592.40 466.20 L 590.20 451.90 Z" fill="#442031" fill-rule="nonzero" node-id="105" stroke="none" target-height="87.80002" target-width="87.79999" target-x="590.2" target-y="451.9"></path><path d="M 195.40 488.00 L 196.70 483.70 L 198.50 479.70 L 200.70 475.90 L 203.40 472.50 L 206.50 469.50 L 209.90 466.90 L 212.80 465.40 L 219.00 463.30 L 222.50 462.80 L 221.30 465.60 L 219.80 468.10 L 217.90 470.40 L 214.80 473.40 L 204.40 481.80 L 222.90 483.00 L 221.40 485.60 L 219.60 487.70 L 217.70 489.40 L 215.50 490.70 L 213.10 491.60 L 208.10 492.30 L 202.90 491.60 L 197.80 489.60 L 195.40 488.00 Z" fill="#442031" fill-rule="nonzero" node-id="107" stroke="none" target-height="29.5" target-width="27.5" target-x="195.4" target-y="462.8"></path><path d="M 886.40 471.10 L 896.60 474.10 L 895.50 482.40 L 894.90 484.40 L 893.10 487.10 L 890.60 488.70 L 884.80 491.00 L 878.90 492.60 L 866.70 494.80 L 831.40 499.20 L 818.10 499.40 L 819.90 489.40 L 843.80 491.70 L 850.30 491.60 L 856.80 491.10 L 869.70 489.00 L 879.30 486.50 L 888.70 483.60 L 886.40 471.10 Z" fill="#442031" fill-rule="nonzero" node-id="109" stroke="none" target-height="28.299988" target-width="78.5" target-x="818.1" target-y="471.1"></path><path d="M 221.40 510.90 L 222.20 508.70 L 223.20 507.10 L 224.40 505.90 L 227.60 504.20 L 232.40 503.40 L 241.30 502.90 L 239.70 504.50 L 231.30 510.80 L 229.70 512.40 L 228.40 514.20 L 227.80 516.30 L 228.10 519.30 L 228.90 521.20 L 232.10 520.40 L 235.20 519.30 L 247.10 513.90 L 245.30 519.20 L 242.60 524.10 L 240.80 526.10 L 238.70 527.60 L 235.20 528.60 L 230.60 528.80 L 228.50 528.50 L 226.50 527.80 L 224.70 526.60 L 223.20 525.20 L 220.90 521.50 L 220.00 517.30 L 220.00 515.10 L 220.50 512.90 L 221.40 510.90 Z" fill="#442031" fill-rule="nonzero" node-id="111" stroke="none" target-height="25.899994" target-width="27.100006" target-x="220" target-y="502.9"></path><path d="M 781.50 551.60 L 788.10 552.50 L 801.10 555.30 L 810.60 558.10 L 820.00 561.40 L 838.60 568.50 L 846.20 572.10 L 853.70 576.40 L 858.00 580.00 L 861.20 584.40 L 862.20 587.00 L 862.90 590.00 L 855.80 587.40 L 848.70 584.40 L 821.30 571.10 L 814.30 568.10 L 803.70 564.30 L 792.80 560.80 L 789.30 559.30 L 786.30 557.30 L 784.50 555.80 L 782.90 553.90 L 781.50 551.60 Z" fill="#442031" fill-rule="nonzero" node-id="113" stroke="none" target-height="38.400024" target-width="81.400024" target-x="781.5" target-y="551.6"></path><path d="M 764.80 570.40 L 769.90 572.50 L 774.70 575.00 L 779.30 577.80 L 785.90 582.50 L 792.30 587.70 L 809.40 602.30 L 814.00 606.70 L 819.40 613.00 L 821.70 616.40 L 823.50 620.00 L 824.80 624.00 L 825.50 628.20 L 822.30 626.80 L 816.60 623.10 L 812.70 619.80 L 795.50 602.60 L 782.30 590.50 L 776.00 584.20 L 768.30 575.20 L 764.80 570.40 Z" fill="#442031" fill-rule="nonzero" node-id="115" stroke="none" target-height="57.799988" target-width="60.700012" target-x="764.8" target-y="570.4"></path><path d="M 716.30 642.80 L 716.40 639.80 L 717.90 636.60 L 725.80 628.60 L 729.10 630.10 L 731.80 632.00 L 734.00 634.10 L 735.90 636.70 L 737.30 639.40 L 738.20 642.40 L 738.60 645.40 L 738.60 648.50 L 738.10 651.70 L 737.20 654.80 L 735.70 657.80 L 733.80 660.80 L 725.20 655.90 L 722.50 653.90 L 720.20 651.70 L 718.30 649.10 L 717.30 647.20 L 716.30 642.80 Z M 724.00 639.50 L 723.30 640.90 L 722.90 642.50 L 723.00 644.10 L 724.20 647.10 L 726.50 649.40 L 727.90 650.10 L 729.60 650.30 L 731.00 649.80 L 732.50 648.00 L 732.80 646.30 L 732.60 644.30 L 731.90 642.40 L 730.70 640.60 L 729.20 639.30 L 727.60 638.50 L 725.30 638.70 L 724.00 639.50 Z" fill="#442031" fill-rule="nonzero" node-id="117" stroke="none" target-height="32.200012" target-width="22.299988" target-x="716.3" target-y="628.6"></path><path d="M 391.00 223.30 L 399.40 216.50 L 408.30 210.20 L 417.50 204.50 L 427.00 199.30 L 436.80 194.60 L 446.90 190.50 L 453.30 191.70 L 444.20 198.40 L 418.20 212.30 L 409.40 216.60 L 403.40 219.20 L 397.30 221.50 L 391.00 223.30 Z" fill="#f5eae6" fill-rule="nonzero" node-id="119" stroke="none" target-height="32.800003" target-width="62.299988" target-x="391" target-y="190.5"></path><path d="M 539.40 365.30 L 540.50 362.50 L 541.70 360.40 L 543.30 358.70 L 547.10 356.40 L 549.40 355.70 L 552.90 355.20 L 556.70 355.00 L 564.20 355.50 L 560.50 358.20 L 556.60 360.40 L 552.50 362.10 L 546.10 364.00 L 539.40 365.30 Z" fill="#f2ecea" fill-rule="nonzero" node-id="121" stroke="none" target-height="10.299988" target-width="24.799988" target-x="539.4" target-y="355"></path><path d="M 378.80 303.10 L 381.60 300.10 L 384.70 297.50 L 388.00 295.20 L 391.60 293.20 L 399.10 290.30 L 407.00 288.80 L 411.10 288.60 L 415.00 288.80 L 419.00 289.50 L 422.80 290.50 L 426.50 291.90 L 430.10 293.80 L 433.40 296.10 L 439.00 301.40 L 440.90 304.00 L 442.30 306.80 L 444.00 312.90 L 444.70 321.00 L 444.80 335.70 L 442.70 340.20 L 435.70 332.90 L 431.80 329.50 L 427.60 326.50 L 424.70 324.90 L 421.60 323.80 L 418.50 323.00 L 415.30 322.80 L 411.90 323.20 L 405.70 325.20 L 403.00 326.70 L 400.50 328.60 L 396.10 333.30 L 394.30 336.00 L 391.60 341.80 L 390.90 344.80 L 390.60 347.80 L 390.90 350.70 L 391.70 353.40 L 393.90 357.10 L 397.80 360.20 L 401.80 362.00 L 406.00 363.20 L 410.40 364.00 L 423.60 365.60 L 424.10 381.30 L 425.10 386.40 L 428.40 390.20 L 432.20 393.60 L 436.20 396.70 L 448.70 405.40 L 446.00 423.60 L 439.60 426.70 L 432.90 429.40 L 428.30 430.90 L 423.60 431.90 L 418.90 432.60 L 411.90 432.40 L 404.80 430.70 L 400.80 428.20 L 397.10 425.20 L 384.00 411.50 L 397.40 448.80 L 398.20 460.10 L 399.10 483.00 L 398.90 494.40 L 398.40 502.00 L 396.50 517.10 L 391.30 541.00 L 382.70 537.60 L 374.30 533.70 L 366.20 529.30 L 358.30 524.50 L 350.70 519.20 L 343.50 513.40 L 326.50 498.30 L 321.10 492.90 L 310.90 481.60 L 306.20 475.60 L 301.90 469.40 L 297.80 463.00 L 294.20 456.40 L 291.10 449.50 L 288.40 442.30 L 297.80 437.20 L 317.00 428.00 L 331.70 421.70 L 346.60 416.00 L 349.00 415.60 L 350.30 401.80 L 369.40 398.90 L 379.00 398.10 L 388.60 397.80 L 381.80 395.50 L 375.10 392.70 L 368.70 389.40 L 362.60 385.60 L 379.40 378.10 L 375.50 374.30 L 382.70 364.60 L 388.90 365.00 L 377.20 355.10 L 373.60 351.50 L 371.50 348.90 L 369.70 346.00 L 368.30 342.90 L 367.60 338.20 L 367.40 333.40 L 367.60 328.60 L 368.20 323.90 L 369.30 319.30 L 370.90 314.90 L 373.00 310.60 L 375.60 306.70 L 378.80 303.10 Z" fill="#f4ecea" fill-rule="nonzero" node-id="123" stroke="none" target-height="252.4" target-width="160.30002" target-x="288.4" target-y="288.6"></path><path d="M 546.20 348.90 L 549.00 345.10 L 552.20 341.70 L 555.70 338.50 L 563.40 333.10 L 571.80 328.90 L 576.30 327.40 L 585.60 325.30 L 594.90 324.60 L 599.60 324.90 L 608.80 326.50 L 613.30 327.90 L 617.60 329.70 L 621.70 331.90 L 625.60 334.60 L 632.70 340.90 L 635.80 344.50 L 638.50 348.40 L 640.80 352.50 L 642.70 356.90 L 644.30 361.40 L 645.40 366.10 L 646.00 370.70 L 646.20 375.50 L 646.00 380.20 L 645.20 384.80 L 644.00 389.30 L 642.20 393.60 L 639.90 397.70 L 637.10 401.60 L 635.60 403.40 L 632.10 405.80 L 629.10 406.80 L 622.50 407.40 L 612.60 407.20 L 585.60 405.20 L 570.70 403.40 L 559.00 400.70 L 572.00 392.90 L 578.00 388.10 L 581.20 379.80 L 585.50 362.50 L 582.00 359.00 L 578.10 356.10 L 574.10 353.80 L 569.70 352.00 L 565.20 350.70 L 560.60 349.70 L 551.00 348.90 L 546.20 348.90 Z" fill="#f4ecea" fill-rule="nonzero" node-id="125" stroke="none" target-height="82.79999" target-width="100" target-x="546.2" target-y="324.6"></path><path d="M 566.10 476.40 L 572.00 481.90 L 577.50 487.70 L 582.60 493.90 L 587.50 500.40 L 591.90 507.20 L 595.90 514.20 L 599.50 521.40 L 602.60 528.90 L 605.40 536.50 L 607.60 544.20 L 609.40 552.00 L 610.70 560.00 L 608.50 557.20 L 605.00 551.20 L 602.90 546.40 L 595.70 526.70 L 590.80 515.90 L 584.00 504.50 L 572.80 487.90 L 566.10 476.40 Z" fill="#2f1c2a" fill-rule="nonzero" node-id="127" stroke="none" target-height="83.600006" target-width="44.600037" target-x="566.1" target-y="476.4"></path><path d="M 675.20 539.10 L 700.10 543.80 L 689.00 543.50 L 678.00 543.70 L 680.70 548.80 L 683.70 553.50 L 687.00 558.00 L 709.10 583.50 L 715.50 592.70 L 718.30 597.70 L 712.10 601.90 L 705.80 605.50 L 699.30 608.70 L 692.50 611.40 L 685.50 613.60 L 678.50 615.40 L 671.30 616.80 L 664.00 617.80 L 654.20 618.60 L 644.40 618.90 L 634.70 618.60 L 644.00 589.40 L 646.00 591.90 L 652.30 591.60 L 656.40 590.80 L 658.10 589.70 L 664.30 582.70 L 669.10 574.90 L 671.60 569.30 L 673.50 563.50 L 674.80 557.50 L 675.50 551.40 L 675.60 545.20 L 675.20 539.10 Z" fill="#c6603a" fill-rule="nonzero" node-id="129" stroke="none" target-height="79.80005" target-width="83.599976" target-x="634.7" target-y="539.1"></path><path d="M 362.80 585.00 L 375.10 587.90 L 387.20 591.20 L 399.30 594.80 L 417.20 600.80 L 470.70 619.60 L 482.70 623.50 L 494.80 627.00 L 519.40 633.40 L 525.40 635.60 L 531.30 638.20 L 538.70 642.40 L 542.30 644.90 L 533.80 656.60 L 525.70 668.60 L 518.10 680.90 L 475.60 752.80 L 463.60 771.90 L 457.00 781.10 L 450.10 790.00 L 442.80 798.60 L 437.00 804.70 L 431.00 810.60 L 424.60 816.10 L 417.90 821.40 L 415.30 822.80 L 403.20 818.80 L 391.10 814.30 L 383.20 811.00 L 368.00 803.20 L 360.70 798.80 L 353.70 794.00 L 347.10 788.70 L 342.30 784.50 L 333.50 775.20 L 325.00 764.30 L 321.10 758.20 L 317.70 751.90 L 314.80 745.20 L 312.30 738.40 L 310.40 731.50 L 308.90 724.40 L 308.00 717.20 L 307.50 709.90 L 307.50 702.70 L 308.10 695.50 L 309.10 688.20 L 311.70 682.50 L 313.90 676.70 L 321.50 653.00 L 323.80 647.20 L 326.60 641.60 L 338.00 622.30 L 362.80 585.00 Z" fill="#f5ece9" fill-rule="nonzero" node-id="131" stroke="none" target-height="237.79999" target-width="234.79999" target-x="307.5" target-y="585"></path><path d="M 724.00 639.50 L 725.30 638.70 L 726.50 638.40 L 727.60 638.50 L 729.20 639.30 L 730.70 640.60 L 731.90 642.40 L 732.60 644.30 L 732.80 646.30 L 732.50 648.00 L 731.00 649.80 L 729.60 650.30 L 727.90 650.10 L 726.50 649.40 L 725.20 648.40 L 724.20 647.10 L 723.00 644.10 L 722.90 642.50 L 723.30 640.90 L 724.00 639.50 Z" fill="#f4ede9" fill-rule="nonzero" node-id="133" stroke="none" target-height="11.899963" target-width="9.899963" target-x="722.9" target-y="638.4"></path><path d="M 652.70 78.80 L 661.20 72.00 L 674.20 78.30 L 676.20 79.60 L 679.40 82.60 L 680.50 84.50 L 681.10 86.70 L 681.30 89.30 L 680.70 95.30 L 678.40 107.00 L 673.10 124.10 L 665.70 144.40 L 663.50 136.40 L 661.80 128.20 L 656.60 95.10 L 654.90 86.90 L 652.70 78.80 Z" fill="#e1814c" fill-rule="nonzero" node-id="135" stroke="none" target-height="72.399994" target-width="28.599976" target-x="652.7" target-y="72"></path><path d="M 735.70 113.40 L 736.70 108.70 L 738.10 104.20 L 739.90 99.90 L 744.70 91.80 L 747.60 88.00 L 766.90 95.70 L 766.50 101.10 L 765.70 106.20 L 764.40 111.20 L 762.80 116.10 L 760.10 122.40 L 756.80 128.40 L 753.00 134.20 L 744.30 145.10 L 739.50 150.20 L 731.90 157.60 L 722.00 166.30 L 724.00 157.40 L 733.80 122.30 L 735.70 113.40 Z" fill="#de894d" fill-rule="nonzero" node-id="137" stroke="none" target-height="78.3" target-width="44.900024" target-x="722" target-y="88"></path><path d="M 300.40 171.60 L 306.70 167.50 L 313.20 164.10 L 320.00 161.20 L 327.10 158.90 L 334.30 157.10 L 341.60 155.90 L 349.10 155.20 L 356.50 155.10 L 363.90 155.60 L 371.30 156.60 L 378.50 158.20 L 385.60 160.30 L 390.90 162.30 L 396.00 164.70 L 400.70 167.60 L 409.70 174.30 L 420.20 183.80 L 426.10 189.70 L 436.50 188.40 L 446.90 190.50 L 436.80 194.60 L 427.00 199.30 L 417.50 204.50 L 408.30 210.20 L 399.40 216.50 L 391.00 223.30 L 382.50 229.10 L 374.20 235.20 L 358.50 248.30 L 343.60 262.40 L 332.90 273.50 L 322.60 284.90 L 319.40 289.20 L 316.70 293.70 L 314.70 298.40 L 313.10 303.30 L 311.90 308.30 L 311.10 313.50 L 310.60 321.30 L 310.70 329.30 L 312.20 344.90 L 300.40 339.00 L 296.30 337.50 L 293.50 336.90 L 290.60 336.70 L 287.70 336.90 L 285.00 338.70 L 282.60 340.90 L 281.30 342.70 L 279.60 346.60 L 279.40 348.60 L 279.60 350.70 L 280.40 352.80 L 284.30 359.00 L 301.80 382.20 L 305.80 388.10 L 278.20 386.00 L 264.40 385.50 L 261.70 387.60 L 259.50 390.10 L 252.00 401.60 L 259.40 403.00 L 266.90 404.00 L 276.90 404.20 L 292.20 402.90 L 333.30 400.50 L 343.50 399.40 L 353.70 397.90 L 363.80 395.80 L 358.70 393.50 L 353.50 391.70 L 348.10 390.30 L 340.00 388.70 L 315.20 385.30 L 321.60 384.40 L 328.00 384.00 L 353.70 383.70 L 360.00 383.10 L 366.40 382.00 L 360.20 379.30 L 334.40 371.10 L 328.30 368.30 L 324.50 366.10 L 320.90 363.50 L 317.60 360.30 L 327.30 362.50 L 356.10 369.90 L 375.50 374.30 L 379.40 378.10 L 362.60 385.60 L 368.70 389.40 L 375.10 392.70 L 381.80 395.50 L 388.60 397.80 L 378.90 398.10 L 369.40 398.90 L 359.80 400.20 L 350.30 401.80 L 309.90 407.50 L 289.90 411.30 L 276.20 415.60 L 271.70 417.40 L 263.20 421.70 L 259.30 424.30 L 255.70 427.40 L 252.30 430.90 L 250.90 433.00 L 249.90 435.10 L 249.40 437.20 L 249.10 440.60 L 249.40 444.10 L 251.90 458.10 L 260.50 453.00 L 285.80 436.80 L 295.20 431.60 L 305.00 426.90 L 311.70 424.00 L 325.30 419.50 L 332.30 417.80 L 339.40 416.70 L 346.60 416.00 L 331.70 421.70 L 317.00 428.00 L 307.30 432.40 L 288.40 442.30 L 283.00 445.60 L 272.60 453.00 L 257.90 465.20 L 261.60 471.80 L 265.70 478.10 L 270.20 484.10 L 280.20 495.30 L 285.60 500.50 L 294.10 508.00 L 303.00 515.10 L 321.10 528.50 L 314.50 534.80 L 286.00 510.40 L 276.70 502.00 L 264.90 490.30 L 259.40 484.10 L 254.30 477.60 L 249.50 470.80 L 245.20 463.50 L 242.50 458.00 L 240.20 452.20 L 238.20 446.30 L 236.70 440.20 L 235.80 434.10 L 235.40 427.90 L 236.00 418.70 L 238.20 409.60 L 245.00 390.70 L 253.20 372.50 L 259.40 360.60 L 266.10 349.10 L 273.40 337.90 L 281.30 327.00 L 289.60 316.50 L 298.30 306.40 L 292.80 301.20 L 287.70 295.70 L 283.10 289.70 L 279.00 283.40 L 275.40 276.80 L 272.20 269.90 L 269.60 262.90 L 267.50 255.60 L 266.00 248.30 L 265.40 237.30 L 265.70 231.80 L 267.40 220.90 L 270.60 210.30 L 275.10 200.20 L 280.80 190.80 L 287.80 182.30 L 295.90 174.90 L 300.40 171.60 Z M 297.70 218.70 L 296.30 224.30 L 295.40 229.90 L 295.20 235.60 L 295.70 241.30 L 296.70 246.90 L 298.30 252.40 L 300.40 257.70 L 303.10 262.70 L 306.30 267.40 L 312.10 273.70 L 319.00 279.00 L 326.10 271.20 L 321.90 260.50 L 318.90 249.20 L 318.00 243.60 L 317.60 237.80 L 317.70 232.10 L 318.40 226.40 L 319.80 220.70 L 321.70 216.30 L 324.10 212.00 L 326.90 207.90 L 330.00 204.00 L 333.50 200.50 L 337.30 197.30 L 341.40 194.60 L 345.70 192.40 L 350.20 190.70 L 353.70 189.80 L 361.00 189.10 L 364.80 189.40 L 369.50 190.20 L 373.90 191.50 L 378.10 193.40 L 382.10 195.70 L 389.70 201.20 L 400.20 210.50 L 406.50 206.00 L 418.50 196.10 L 413.20 190.80 L 403.80 182.60 L 395.60 177.00 L 391.20 174.70 L 386.60 172.80 L 381.80 171.40 L 376.60 170.30 L 371.30 169.70 L 366.10 169.50 L 360.80 169.70 L 350.30 171.30 L 340.10 174.40 L 330.40 178.80 L 321.50 184.50 L 317.30 187.90 L 313.50 191.50 L 310.00 195.40 L 306.80 199.50 L 303.90 203.90 L 301.40 208.60 L 299.40 213.50 L 297.70 218.70 Z M 347.60 195.40 L 337.00 204.40 L 330.70 211.10 L 325.70 218.90 L 323.80 223.10 L 322.40 227.50 L 321.50 232.00 L 321.00 236.60 L 321.00 241.20 L 321.40 245.80 L 322.30 250.40 L 323.70 254.80 L 325.50 259.00 L 327.70 263.10 L 330.40 266.80 L 339.80 257.40 L 349.60 248.20 L 356.30 242.40 L 370.50 231.60 L 383.00 223.30 L 394.80 214.00 L 392.00 210.20 L 389.00 206.80 L 385.70 203.80 L 382.10 201.10 L 378.20 198.80 L 374.20 196.90 L 370.00 195.50 L 365.60 194.50 L 361.20 194.00 L 356.70 194.00 L 352.20 194.40 L 347.60 195.40 Z" fill="#341729" fill-rule="nonzero" node-id="139" stroke="none" target-height="379.69998" target-width="211.5" target-x="235.4" target-y="155.1"></path><path d="M 796.40 166.80 L 804.70 161.90 L 809.20 160.00 L 813.80 158.60 L 817.00 158.00 L 823.30 157.90 L 826.30 158.40 L 829.40 159.30 L 832.50 160.80 L 827.20 158.90 L 832.90 169.90 L 834.10 172.90 L 834.90 175.70 L 835.10 177.60 L 834.40 181.10 L 833.50 182.60 L 832.10 184.10 L 830.00 185.60 L 824.80 187.20 L 814.20 189.40 L 806.10 190.30 L 773.30 192.60 L 761.40 194.10 L 766.10 188.30 L 773.00 182.10 L 777.50 178.80 L 796.40 166.80 Z" fill="#e2894d" fill-rule="nonzero" node-id="141" stroke="none" target-height="36.200012" target-width="73.69995" target-x="761.4" target-y="157.9"></path><path d="M 297.70 218.70 L 299.40 213.50 L 301.40 208.60 L 303.90 203.90 L 306.80 199.50 L 310.00 195.40 L 313.50 191.50 L 317.30 187.90 L 321.50 184.50 L 330.40 178.80 L 340.10 174.40 L 350.30 171.30 L 360.80 169.70 L 366.10 169.50 L 371.30 169.70 L 376.60 170.30 L 381.80 171.40 L 386.60 172.80 L 391.20 174.70 L 395.60 177.00 L 403.80 182.60 L 413.20 190.80 L 418.50 196.10 L 406.50 206.00 L 400.20 210.50 L 389.70 201.20 L 382.10 195.70 L 378.10 193.40 L 373.90 191.50 L 369.50 190.20 L 364.80 189.40 L 361.00 189.10 L 353.70 189.80 L 350.20 190.70 L 345.70 192.40 L 341.40 194.60 L 337.30 197.30 L 333.50 200.50 L 330.00 204.00 L 326.90 207.90 L 324.10 212.00 L 321.70 216.30 L 319.80 220.70 L 318.40 226.40 L 317.70 232.10 L 317.60 237.80 L 318.00 243.60 L 318.90 249.20 L 321.90 260.50 L 326.10 271.20 L 319.00 279.00 L 312.10 273.70 L 306.30 267.40 L 303.10 262.70 L 300.40 257.70 L 298.30 252.40 L 296.70 246.90 L 295.70 241.30 L 295.20 235.60 L 295.40 229.90 L 296.30 224.30 L 297.70 218.70 Z" fill="#d57340" fill-rule="nonzero" node-id="143" stroke="none" target-height="109.5" target-width="123.29999" target-x="295.2" target-y="169.5"></path><path d="M 458.70 180.30 L 468.20 178.10 L 477.70 176.30 L 487.20 175.10 L 496.80 174.30 L 506.40 174.00 L 525.50 174.40 L 535.00 175.20 L 547.70 176.80 L 560.30 179.00 L 572.90 181.70 L 585.40 184.90 L 597.80 188.50 L 622.20 196.90 L 645.80 206.50 L 655.30 210.90 L 664.50 215.70 L 673.50 220.90 L 682.30 226.40 L 690.80 232.40 L 699.00 238.70 L 706.90 245.40 L 714.60 252.50 L 721.90 259.80 L 728.90 267.50 L 735.40 275.60 L 741.70 283.90 L 746.70 284.10 L 751.70 283.70 L 766.60 281.20 L 771.60 280.90 L 778.50 280.80 L 785.40 281.00 L 792.40 281.70 L 799.30 282.90 L 806.10 284.50 L 812.80 286.50 L 819.30 289.10 L 825.50 292.10 L 831.40 295.60 L 839.70 301.90 L 847.00 309.40 L 850.70 314.30 L 857.00 324.60 L 862.00 335.70 L 865.50 347.30 L 866.80 353.30 L 868.20 365.40 L 868.20 377.50 L 867.50 383.10 L 866.50 388.60 L 865.00 394.00 L 861.00 404.50 L 855.50 414.30 L 852.30 418.90 L 848.80 423.30 L 840.90 431.30 L 836.50 434.80 L 831.90 438.00 L 827.10 440.90 L 822.10 443.40 L 816.80 445.50 L 810.50 447.40 L 804.20 448.90 L 797.80 449.90 L 791.20 450.50 L 778.20 450.80 L 778.50 483.40 L 778.10 501.50 L 776.50 515.80 L 775.10 522.90 L 773.20 529.80 L 767.20 545.50 L 759.00 562.60 L 754.40 570.80 L 749.20 578.70 L 743.60 586.30 L 739.00 591.70 L 734.10 596.70 L 728.90 601.50 L 723.30 606.00 L 717.20 609.50 L 710.90 612.70 L 704.40 615.50 L 697.70 617.90 L 688.70 620.60 L 679.50 622.80 L 670.10 624.50 L 660.70 625.80 L 641.90 627.40 L 640.50 643.80 L 645.50 647.40 L 650.70 650.50 L 656.00 653.20 L 664.30 656.70 L 698.70 668.10 L 707.10 671.50 L 712.50 674.00 L 717.80 677.00 L 722.80 680.30 L 725.90 682.90 L 728.60 685.70 L 730.90 688.70 L 732.80 692.00 L 734.40 695.60 L 736.40 702.90 L 736.80 706.80 L 736.90 712.00 L 736.40 717.20 L 735.20 722.30 L 733.90 726.00 L 730.50 732.80 L 725.60 739.30 L 722.70 742.20 L 719.50 744.60 L 712.30 748.50 L 708.50 749.90 L 702.50 751.60 L 696.30 752.90 L 684.10 754.60 L 678.90 754.70 L 673.90 754.30 L 669.00 753.30 L 664.20 751.80 L 659.60 750.00 L 655.10 747.70 L 648.50 743.90 L 642.20 739.50 L 630.30 730.10 L 626.10 743.70 L 621.20 757.10 L 615.80 770.30 L 609.80 783.20 L 603.40 796.00 L 596.60 808.50 L 610.70 809.10 L 624.70 809.20 L 638.80 808.70 L 652.80 807.70 L 666.80 806.10 L 680.80 804.00 L 686.70 803.90 L 698.30 802.70 L 707.00 801.00 L 732.80 795.10 L 744.30 793.40 L 750.10 793.10 L 755.80 793.10 L 761.70 793.80 L 771.80 795.90 L 775.50 797.30 L 778.90 799.20 L 782.10 801.50 L 785.10 804.10 L 787.80 807.10 L 792.40 813.70 L 794.40 817.20 L 797.00 822.80 L 799.10 828.30 L 798.90 847.20 L 798.00 866.20 L 785.50 866.60 L 739.80 866.60 L 723.20 867.90 L 710.70 869.50 L 698.30 871.80 L 661.20 879.50 L 648.80 881.70 L 632.20 883.50 L 623.70 883.80 L 613.60 883.70 L 593.40 882.70 L 583.40 881.50 L 576.80 880.30 L 563.80 876.90 L 545.70 870.90 L 535.40 868.70 L 526.90 868.40 L 499.30 869.20 L 490.10 869.00 L 480.90 868.30 L 471.70 867.10 L 457.10 864.50 L 427.90 858.00 L 413.40 854.10 L 399.20 849.70 L 385.10 844.60 L 374.80 840.30 L 364.70 835.70 L 354.70 830.50 L 344.90 825.00 L 324.90 811.40 L 315.10 804.20 L 305.60 796.70 L 296.40 788.80 L 287.50 780.50 L 279.00 771.90 L 271.00 762.90 L 263.40 753.40 L 255.50 759.60 L 251.20 762.40 L 246.70 764.70 L 243.60 766.00 L 237.30 767.40 L 234.00 767.50 L 230.70 767.10 L 227.20 766.10 L 219.00 760.20 L 209.80 751.40 L 169.30 707.40 L 163.30 700.30 L 157.80 692.90 L 151.40 682.40 L 148.70 676.90 L 147.90 673.00 L 147.60 669.30 L 147.70 665.60 L 148.20 662.00 L 149.50 657.40 L 151.40 652.90 L 153.90 648.70 L 156.90 644.80 L 160.30 641.20 L 164.10 638.00 L 168.30 635.10 L 172.60 632.80 L 177.30 630.90 L 182.00 629.50 L 186.90 628.70 L 196.80 628.30 L 201.60 628.60 L 206.40 629.40 L 215.60 632.20 L 226.50 637.60 L 245.10 649.40 L 248.80 638.70 L 252.80 628.20 L 257.30 617.90 L 262.10 607.70 L 267.40 597.70 L 273.00 588.00 L 279.10 578.50 L 285.50 569.20 L 292.20 560.10 L 299.30 551.40 L 306.70 542.90 L 314.50 534.80 L 321.10 528.50 L 351.20 547.90 L 366.50 557.20 L 381.90 566.30 L 390.00 570.60 L 406.70 578.30 L 445.00 593.70 L 457.60 599.30 L 443.20 595.50 L 429.00 591.10 L 414.90 586.30 L 401.00 580.80 L 387.40 575.00 L 373.90 568.60 L 338.70 548.60 L 329.80 543.90 L 320.60 539.70 L 324.20 557.40 L 333.10 592.40 L 334.90 601.20 L 336.10 610.20 L 329.90 606.30 L 324.00 602.10 L 300.90 584.30 L 294.90 580.10 L 288.70 576.30 L 288.80 583.90 L 289.40 591.50 L 290.40 599.00 L 291.90 606.40 L 294.50 616.20 L 297.70 625.80 L 308.80 653.20 L 310.70 659.30 L 311.50 663.50 L 311.80 667.80 L 311.60 672.20 L 306.80 668.80 L 298.20 661.30 L 292.20 655.10 L 275.20 635.40 L 269.20 629.10 L 262.90 623.20 L 262.20 627.80 L 261.90 636.50 L 263.40 646.20 L 264.80 651.60 L 266.70 657.00 L 270.00 664.80 L 281.70 688.10 L 285.30 695.90 L 288.30 703.90 L 281.40 700.50 L 261.20 689.60 L 254.30 686.30 L 247.20 683.40 L 248.30 695.60 L 250.90 707.30 L 253.50 714.90 L 256.50 722.40 L 260.10 729.60 L 264.10 736.70 L 268.40 743.50 L 273.10 750.20 L 280.60 759.70 L 292.30 773.10 L 306.00 786.60 L 320.80 799.00 L 331.10 806.60 L 341.80 813.70 L 352.90 820.40 L 364.20 826.50 L 375.70 832.20 L 387.50 837.40 L 399.20 841.70 L 411.00 845.50 L 423.00 849.00 L 435.10 852.10 L 451.40 855.70 L 467.80 858.60 L 484.30 860.90 L 499.90 862.00 L 507.80 862.30 L 515.70 862.00 L 520.90 861.50 L 526.00 860.50 L 530.90 859.20 L 535.70 857.40 L 540.30 855.00 L 549.50 849.20 L 519.40 828.50 L 512.20 822.80 L 505.40 816.80 L 501.20 812.50 L 497.40 807.90 L 493.90 803.00 L 490.90 797.90 L 488.40 792.40 L 486.30 786.50 L 492.60 788.90 L 498.60 791.80 L 522.10 805.20 L 528.10 808.00 L 534.40 810.30 L 538.60 811.50 L 543.00 812.20 L 562.10 812.90 L 571.70 812.40 L 576.40 811.50 L 581.00 808.60 L 585.70 803.90 L 588.10 800.70 L 596.60 786.80 L 590.10 781.90 L 583.20 777.50 L 576.20 773.60 L 565.30 768.30 L 520.20 749.80 L 509.40 744.60 L 502.30 740.60 L 495.50 736.30 L 489.00 731.40 L 535.40 739.60 L 561.40 743.10 L 582.20 744.30 L 592.60 744.20 L 603.10 743.60 L 613.60 742.40 L 613.40 731.50 L 613.10 728.80 L 612.40 726.30 L 610.70 723.40 L 604.90 717.90 L 600.40 714.20 L 595.60 710.80 L 588.00 706.30 L 580.20 702.20 L 572.10 698.40 L 547.70 688.10 L 573.40 665.60 L 598.50 642.30 L 606.50 633.30 L 613.60 623.50 L 603.70 622.80 L 588.80 622.80 L 578.90 622.00 L 574.10 620.90 L 540.20 612.00 L 530.40 609.20 L 520.70 605.90 L 539.60 607.90 L 571.00 612.80 L 596.40 615.90 L 615.50 617.50 L 634.70 618.60 L 644.40 618.90 L 654.20 618.60 L 664.00 617.80 L 671.30 616.80 L 678.50 615.40 L 685.50 613.60 L 692.50 611.40 L 699.30 608.70 L 705.80 605.50 L 712.10 601.90 L 718.30 597.70 L 715.50 592.70 L 709.10 583.50 L 687.00 558.00 L 683.70 553.50 L 680.70 548.80 L 678.00 543.70 L 689.00 543.50 L 700.10 543.80 L 706.80 545.50 L 713.40 547.70 L 726.20 553.10 L 738.80 559.10 L 741.90 545.10 L 742.20 541.50 L 742.00 538.20 L 741.40 536.00 L 740.30 534.00 L 735.20 528.00 L 727.60 521.00 L 721.30 516.40 L 714.80 512.20 L 687.60 496.60 L 681.10 492.30 L 674.90 487.60 L 680.90 486.30 L 686.90 485.30 L 692.90 484.90 L 701.90 484.70 L 719.90 485.90 L 747.10 488.80 L 756.10 489.30 L 765.20 489.30 L 765.40 465.00 L 755.10 462.50 L 744.90 459.50 L 704.50 446.40 L 694.30 443.50 L 680.00 440.30 L 686.30 436.60 L 692.70 433.50 L 699.20 431.00 L 705.90 429.00 L 712.80 427.40 L 719.70 426.20 L 730.30 424.90 L 740.90 424.20 L 762.20 423.50 L 762.00 414.10 L 761.30 404.80 L 760.10 395.60 L 758.50 386.50 L 755.70 374.40 L 752.40 362.50 L 748.50 350.70 L 744.10 339.00 L 734.50 316.10 L 743.00 313.30 L 751.90 311.00 L 764.00 309.00 L 770.00 308.60 L 776.10 308.70 L 782.00 309.30 L 787.80 310.50 L 792.10 311.80 L 796.20 313.60 L 800.30 315.70 L 804.20 318.30 L 807.70 321.00 L 810.60 324.10 L 813.10 327.50 L 815.20 331.20 L 816.80 335.10 L 818.00 339.20 L 818.70 343.40 L 819.00 347.70 L 818.80 351.90 L 818.10 356.20 L 816.90 360.30 L 813.70 368.30 L 811.80 371.90 L 807.20 378.40 L 803.60 382.20 L 799.60 385.80 L 795.30 389.00 L 788.50 393.50 L 781.30 397.50 L 767.00 404.80 L 768.40 423.00 L 786.00 419.10 L 791.80 417.40 L 803.20 413.20 L 808.60 410.60 L 813.80 407.70 L 818.70 404.30 L 823.30 400.60 L 827.60 396.40 L 831.50 391.70 L 834.60 387.40 L 837.10 382.90 L 839.20 378.20 L 840.80 373.40 L 842.00 368.50 L 842.80 363.40 L 843.10 358.40 L 843.10 353.20 L 841.80 343.00 L 839.00 333.00 L 834.80 323.60 L 829.30 314.80 L 826.10 310.80 L 822.60 307.10 L 818.90 303.70 L 814.80 300.60 L 810.50 297.90 L 806.00 295.60 L 801.20 293.70 L 796.10 292.20 L 789.80 291.10 L 783.40 290.50 L 777.10 290.30 L 767.50 290.70 L 738.90 293.70 L 731.30 283.50 L 723.20 273.70 L 714.70 264.20 L 708.00 257.30 L 701.00 250.80 L 693.80 244.60 L 686.20 238.80 L 678.50 233.30 L 670.40 228.30 L 662.00 223.70 L 653.30 219.60 L 665.00 248.10 L 659.10 247.30 L 652.80 242.00 L 646.30 237.10 L 639.50 232.70 L 632.30 228.80 L 624.90 225.50 L 617.30 222.80 L 611.40 221.20 L 605.50 219.90 L 599.40 219.10 L 593.20 218.70 L 608.00 233.30 L 615.20 241.00 L 621.80 249.00 L 625.80 254.60 L 629.40 260.40 L 632.60 266.40 L 634.70 271.10 L 637.90 281.10 L 638.90 286.40 L 626.10 267.00 L 622.70 262.30 L 618.90 258.00 L 616.10 255.40 L 609.80 251.00 L 602.70 248.20 L 595.50 246.00 L 588.20 244.40 L 580.70 243.10 L 550.80 238.90 L 553.00 234.10 L 555.50 229.60 L 558.30 225.40 L 561.40 221.40 L 566.00 216.50 L 571.00 211.80 L 576.30 207.50 L 584.70 201.60 L 593.30 196.00 L 570.90 190.50 L 548.30 185.90 L 537.10 209.30 L 526.50 233.00 L 518.60 224.00 L 512.80 218.40 L 509.60 216.10 L 504.90 213.90 L 502.20 213.20 L 497.70 212.80 L 488.70 212.80 L 461.70 215.80 L 467.30 211.70 L 473.20 208.20 L 479.30 205.30 L 485.60 202.90 L 498.70 198.90 L 518.70 194.60 L 514.90 192.80 L 511.10 191.50 L 507.30 190.60 L 499.50 190.00 L 489.50 190.70 L 459.60 196.00 L 471.30 183.50 L 458.70 180.30 Z M 744.50 320.00 L 757.50 357.80 L 761.40 370.60 L 764.80 383.50 L 767.90 396.40 L 782.40 392.00 L 788.60 388.00 L 794.70 383.70 L 798.60 380.50 L 802.10 377.10 L 805.40 373.40 L 809.30 367.30 L 810.80 363.90 L 813.20 357.10 L 813.90 353.90 L 814.30 347.30 L 813.70 343.00 L 812.60 338.80 L 810.90 334.70 L 808.70 330.80 L 806.10 327.30 L 803.00 324.20 L 797.60 320.40 L 791.50 317.90 L 786.30 316.50 L 781.00 315.60 L 775.80 315.30 L 770.50 315.40 L 760.00 316.50 L 744.50 320.00 Z M 168.00 642.10 L 179.90 652.20 L 168.10 652.50 L 156.40 653.60 L 157.80 656.50 L 159.60 658.90 L 161.90 660.90 L 164.60 662.60 L 154.30 669.80 L 159.10 680.90 L 161.20 684.30 L 170.00 695.50 L 179.20 706.40 L 198.40 727.50 L 225.10 755.70 L 227.70 758.00 L 230.50 759.90 L 233.50 761.20 L 235.60 761.70 L 237.80 761.80 L 240.20 761.50 L 243.50 759.80 L 249.60 755.70 L 253.80 752.00 L 257.60 748.00 L 256.60 743.70 L 253.60 735.40 L 241.80 711.40 L 240.50 704.40 L 238.80 697.50 L 234.50 683.80 L 237.60 678.30 L 239.40 672.10 L 240.00 665.60 L 239.80 662.40 L 238.60 656.30 L 231.20 649.40 L 222.90 643.40 L 213.90 638.70 L 209.10 636.90 L 204.20 635.50 L 199.30 634.60 L 168.00 642.10 Z M 569.90 691.40 L 576.40 691.00 L 589.20 689.20 L 598.70 687.20 L 608.10 684.60 L 607.70 696.90 L 608.00 699.90 L 608.60 702.80 L 610.50 706.20 L 615.30 710.80 L 618.80 713.60 L 634.10 723.00 L 635.90 726.20 L 638.10 729.10 L 640.70 731.70 L 645.10 735.20 L 650.00 738.20 L 660.00 743.20 L 664.50 744.70 L 674.50 747.10 L 679.50 747.50 L 682.90 747.40 L 686.10 746.90 L 689.20 746.00 L 692.00 744.70 L 694.70 742.80 L 697.10 740.30 L 692.80 739.10 L 695.00 731.40 L 707.40 741.70 L 723.90 727.40 L 711.10 711.50 L 731.10 718.30 L 729.80 707.00 L 729.10 703.20 L 726.70 696.10 L 724.90 692.90 L 722.60 689.90 L 714.90 683.20 L 709.90 679.70 L 704.70 676.70 L 693.70 671.80 L 679.30 667.30 L 643.60 659.00 L 634.90 656.50 L 629.80 659.90 L 619.00 665.90 L 593.70 677.30 L 585.40 681.30 L 580.10 684.30 L 574.90 687.70 L 569.90 691.40 Z M 707.60 807.90 L 706.70 813.70 L 706.30 819.60 L 706.50 825.50 L 707.10 831.40 L 709.50 843.10 L 712.10 851.60 L 715.30 859.90 L 734.50 860.20 L 792.00 859.90 L 792.80 843.60 L 792.90 830.30 L 773.50 830.70 L 789.90 820.50 L 780.10 811.00 L 771.90 816.10 L 763.40 820.80 L 766.20 816.30 L 769.50 812.20 L 776.50 804.40 L 760.10 799.40 L 751.50 809.00 L 742.40 818.10 L 750.20 800.20 L 743.00 800.70 L 728.70 802.70 L 718.10 805.00 L 707.60 807.90 Z M 680.00 817.80 L 678.90 829.10 L 678.90 834.80 L 679.60 843.30 L 680.70 851.70 L 683.70 868.50 L 706.60 862.60 L 697.90 825.10 L 692.50 806.60 L 684.80 810.90 L 682.60 812.70 L 681.40 814.10 L 680.50 815.80 L 680.00 817.80 Z M 594.30 813.80 L 590.60 817.80 L 587.30 822.10 L 578.40 836.00 L 575.20 840.50 L 571.80 844.80 L 567.90 848.70 L 562.50 852.80 L 545.20 863.80 L 553.40 867.40 L 561.70 870.50 L 570.30 873.00 L 576.80 874.50 L 583.40 875.50 L 590.10 876.10 L 596.80 876.20 L 599.10 872.80 L 602.80 865.70 L 605.40 856.70 L 606.30 851.40 L 607.20 837.70 L 607.30 813.10 L 594.30 813.80 Z M 616.40 878.90 L 634.60 877.60 L 643.60 876.50 L 652.70 875.10 L 661.60 873.20 L 670.50 870.90 L 667.40 865.20 L 662.20 853.60 L 649.20 817.50 L 642.70 815.30 L 631.50 848.00 L 628.50 856.00 L 622.50 869.00 L 616.40 878.90 Z" fill="#2f1a2a" fill-rule="nonzero" node-id="145" stroke="none" target-height="709.8" target-width="720.6" target-x="147.6" target-y="174"></path><path d="M 436.50 188.40 L 443.40 184.40 L 447.00 182.70 L 450.80 181.30 L 454.60 180.50 L 458.70 180.30 L 471.30 183.50 L 459.60 196.00 L 444.20 198.40 L 453.30 191.70 L 436.50 188.40 Z" fill="#836058" fill-rule="nonzero" node-id="147" stroke="none" target-height="18.09999" target-width="34.799988" target-x="436.5" target-y="180.3"></path><path d="M 548.30 185.90 L 570.90 190.50 L 593.30 196.00 L 584.70 201.60 L 576.30 207.50 L 571.00 211.80 L 566.00 216.50 L 561.40 221.40 L 558.30 225.40 L 555.50 229.60 L 553.00 234.10 L 550.80 238.90 L 580.70 243.10 L 588.20 244.40 L 595.50 246.00 L 602.70 248.20 L 609.80 250.90 L 616.10 255.40 L 618.90 258.00 L 622.70 262.30 L 626.10 267.00 L 638.90 286.40 L 637.90 281.10 L 634.70 271.10 L 632.60 266.40 L 629.40 260.40 L 625.80 254.60 L 621.80 249.00 L 615.20 241.00 L 608.00 233.30 L 593.20 218.70 L 599.40 219.10 L 605.50 219.90 L 611.40 221.20 L 617.30 222.80 L 624.90 225.50 L 632.30 228.80 L 639.50 232.70 L 646.30 237.10 L 652.80 242.00 L 659.10 247.30 L 666.30 254.20 L 677.90 266.10 L 686.30 276.40 L 689.90 281.90 L 693.10 287.70 L 695.90 293.80 L 698.60 301.40 L 700.80 309.10 L 702.40 316.90 L 703.50 324.80 L 704.20 332.80 L 704.40 340.80 L 703.80 356.80 L 703.10 364.80 L 701.40 376.80 L 699.20 388.50 L 697.70 394.90 L 695.70 401.00 L 693.30 407.10 L 689.10 415.80 L 684.30 424.30 L 673.90 440.80 L 680.00 440.30 L 684.00 441.00 L 671.80 454.60 L 657.40 451.70 L 614.40 442.10 L 595.20 438.70 L 585.50 437.40 L 581.40 427.70 L 587.30 426.80 L 593.20 426.50 L 599.10 426.60 L 607.90 427.40 L 640.20 432.40 L 652.10 433.00 L 647.80 430.10 L 643.40 427.60 L 640.30 426.30 L 637.10 425.40 L 606.80 421.30 L 579.70 418.20 L 573.60 411.90 L 609.40 414.30 L 618.30 414.60 L 630.60 414.40 L 633.60 413.70 L 636.40 412.60 L 639.00 411.10 L 643.60 407.10 L 646.60 403.40 L 649.10 399.40 L 651.20 395.20 L 654.20 386.70 L 655.10 382.60 L 655.80 374.20 L 655.50 368.50 L 654.60 363.00 L 653.20 357.50 L 651.10 352.20 L 648.60 347.10 L 645.60 342.20 L 642.20 337.60 L 638.40 333.40 L 634.20 329.50 L 629.60 326.10 L 624.80 323.20 L 619.60 320.80 L 614.70 319.10 L 609.60 317.80 L 604.50 317.00 L 599.40 316.70 L 594.20 316.70 L 583.90 318.00 L 573.90 320.90 L 564.40 325.20 L 555.60 330.90 L 551.60 334.10 L 547.90 337.70 L 544.40 341.60 L 541.30 345.70 L 538.60 350.10 L 536.20 354.70 L 534.30 359.60 L 532.80 364.20 L 529.50 383.10 L 528.00 387.70 L 520.40 386.90 L 511.30 384.20 L 490.00 374.70 L 478.80 370.50 L 472.90 368.50 L 467.00 367.00 L 457.90 365.30 L 448.60 364.20 L 430.10 363.30 L 442.70 340.20 L 449.70 324.80 L 451.00 321.00 L 451.90 315.90 L 451.60 309.30 L 450.90 305.60 L 449.80 302.10 L 448.30 298.60 L 445.70 294.20 L 442.70 290.30 L 439.10 286.60 L 435.10 283.50 L 430.80 280.90 L 426.20 278.90 L 422.60 277.70 L 418.90 277.00 L 415.20 276.70 L 411.30 276.80 L 406.60 277.40 L 402.10 278.50 L 397.80 280.00 L 391.50 282.80 L 385.40 286.20 L 362.40 302.10 L 339.00 290.40 L 340.50 299.80 L 350.20 305.40 L 359.50 311.70 L 361.90 318.50 L 363.10 327.40 L 363.80 343.80 L 342.30 339.80 L 362.10 352.80 L 372.30 358.90 L 382.70 364.60 L 375.50 374.30 L 356.10 369.90 L 327.30 362.50 L 317.60 360.30 L 320.90 363.50 L 324.50 366.10 L 328.30 368.30 L 334.40 371.10 L 360.20 379.30 L 366.40 382.00 L 360.00 383.10 L 353.70 383.70 L 328.00 384.00 L 321.60 384.40 L 315.20 385.30 L 340.00 388.70 L 348.10 390.30 L 353.50 391.70 L 358.70 393.50 L 363.80 395.80 L 353.70 397.90 L 343.50 399.40 L 333.30 400.50 L 292.20 402.90 L 276.90 404.20 L 266.90 404.00 L 259.40 403.00 L 252.00 401.60 L 259.50 390.10 L 261.70 387.60 L 264.40 385.50 L 278.20 386.00 L 305.80 388.10 L 301.80 382.20 L 288.50 364.90 L 284.30 359.00 L 280.40 352.80 L 279.60 350.70 L 279.40 348.60 L 279.60 346.60 L 280.30 344.60 L 282.60 340.90 L 285.00 338.70 L 287.70 336.90 L 290.60 336.70 L 293.50 336.90 L 296.30 337.50 L 300.40 339.00 L 312.20 344.90 L 310.70 329.30 L 310.60 321.30 L 311.10 313.50 L 311.90 308.30 L 313.10 303.30 L 314.70 298.40 L 316.70 293.70 L 319.40 289.20 L 322.60 284.90 L 332.90 273.50 L 351.00 255.20 L 366.30 241.60 L 374.20 235.20 L 382.50 229.10 L 391.00 223.30 L 397.30 221.50 L 403.40 219.20 L 409.40 216.60 L 418.20 212.30 L 444.20 198.40 L 465.50 195.10 L 489.50 190.70 L 499.50 190.00 L 507.30 190.60 L 511.10 191.50 L 514.90 192.80 L 518.70 194.60 L 498.70 198.90 L 485.60 202.90 L 479.30 205.30 L 473.20 208.20 L 467.30 211.70 L 461.70 215.80 L 488.70 212.80 L 497.70 212.80 L 502.20 213.20 L 504.90 213.90 L 509.60 216.10 L 512.80 218.40 L 518.60 224.00 L 526.50 233.00 L 537.10 209.30 L 548.30 185.90 Z M 454.60 255.30 L 473.70 251.90 L 483.40 250.80 L 488.70 251.50 L 493.90 252.80 L 514.00 260.20 L 517.80 251.80 L 520.90 243.10 L 507.00 239.90 L 499.70 238.90 L 492.30 238.40 L 487.40 238.50 L 477.90 239.80 L 473.30 241.10 L 469.00 242.90 L 465.00 245.10 L 462.10 247.10 L 457.00 252.20 L 454.60 255.30 Z M 546.50 254.70 L 547.40 267.00 L 559.90 274.60 L 585.70 288.70 L 591.90 292.70 L 597.90 297.10 L 597.50 293.10 L 596.80 289.40 L 595.70 286.00 L 594.40 282.80 L 592.00 278.80 L 589.20 275.20 L 585.80 272.00 L 582.20 269.10 L 578.20 266.40 L 574.00 264.00 L 567.30 261.00 L 560.30 258.50 L 546.50 254.70 Z" fill="#e48f4e" fill-rule="nonzero" node-id="149" stroke="none" target-height="268.7" target-width="452.40002" target-x="252" target-y="185.9"></path><path d="M 347.60 195.40 L 352.20 194.40 L 356.70 194.00 L 361.20 194.00 L 365.60 194.50 L 370.00 195.50 L 374.20 196.90 L 378.20 198.80 L 382.10 201.10 L 385.70 203.80 L 389.00 206.80 L 392.00 210.20 L 394.80 214.00 L 383.00 223.30 L 370.50 231.60 L 365.20 218.00 L 360.70 209.40 L 358.10 205.50 L 355.10 201.80 L 351.60 198.40 L 347.60 195.40 Z" fill="#caa9aa" fill-rule="nonzero" node-id="151" stroke="none" target-height="37.600006" target-width="47.19998" target-x="347.6" target-y="194"></path><path d="M 328.10 214.90 L 330.70 211.10 L 333.80 207.70 L 340.50 201.40 L 347.60 195.40 L 351.60 198.40 L 355.10 201.80 L 358.10 205.50 L 360.70 209.40 L 365.20 218.00 L 370.50 231.60 L 363.30 236.90 L 349.60 248.20 L 339.80 257.40 L 330.40 266.80 L 327.70 263.10 L 325.50 259.00 L 323.70 254.80 L 322.30 250.40 L 321.40 245.80 L 321.00 241.20 L 321.00 236.60 L 321.50 232.00 L 322.40 227.50 L 323.80 223.10 L 325.70 218.90 L 328.10 214.90 Z" fill="#e0cecb" fill-rule="nonzero" node-id="153" stroke="none" target-height="71.399994" target-width="49.5" target-x="321" target-y="195.4"></path><path d="M 653.30 219.60 L 662.00 223.70 L 670.40 228.30 L 678.50 233.30 L 686.20 238.80 L 693.80 244.60 L 701.00 250.80 L 708.00 257.30 L 714.70 264.20 L 723.20 273.70 L 731.30 283.50 L 738.90 293.70 L 767.50 290.70 L 777.10 290.30 L 783.40 290.50 L 789.80 291.10 L 796.10 292.20 L 801.20 293.70 L 806.00 295.60 L 810.50 297.90 L 814.80 300.60 L 818.90 303.70 L 822.60 307.10 L 826.10 310.80 L 829.30 314.80 L 832.20 319.10 L 837.10 328.20 L 840.60 338.00 L 842.60 348.10 L 843.10 358.40 L 842.80 363.40 L 842.00 368.50 L 840.80 373.40 L 839.20 378.20 L 837.10 382.90 L 834.60 387.40 L 831.50 391.70 L 827.60 396.40 L 823.30 400.60 L 818.70 404.30 L 813.80 407.70 L 808.60 410.60 L 803.20 413.20 L 791.80 417.40 L 777.20 421.30 L 768.40 423.00 L 767.00 404.80 L 781.30 397.50 L 788.50 393.50 L 795.30 389.00 L 799.60 385.80 L 803.60 382.20 L 807.20 378.40 L 811.80 371.90 L 813.70 368.30 L 816.90 360.30 L 818.10 356.20 L 818.80 351.90 L 819.00 347.70 L 818.70 343.40 L 818.00 339.20 L 816.80 335.10 L 815.20 331.20 L 813.10 327.50 L 810.60 324.10 L 807.70 321.00 L 804.20 318.30 L 800.30 315.70 L 796.20 313.60 L 792.10 311.80 L 787.80 310.50 L 782.00 309.30 L 776.10 308.70 L 770.00 308.60 L 764.00 309.00 L 751.90 311.00 L 743.00 313.30 L 734.50 316.10 L 744.10 339.00 L 748.50 350.70 L 752.40 362.50 L 755.70 374.40 L 758.50 386.50 L 760.10 395.60 L 761.30 404.80 L 762.00 414.10 L 762.20 423.50 L 740.90 424.20 L 730.30 424.90 L 719.70 426.20 L 712.80 427.40 L 705.90 429.00 L 699.20 431.00 L 692.70 433.50 L 686.30 436.60 L 680.00 440.30 L 673.90 440.80 L 684.30 424.30 L 689.10 415.80 L 693.30 407.10 L 695.70 401.00 L 697.70 394.90 L 699.20 388.50 L 701.40 376.80 L 703.80 356.80 L 704.40 340.80 L 704.20 332.80 L 703.50 324.80 L 702.40 316.90 L 700.80 309.10 L 698.60 301.40 L 695.90 293.80 L 693.10 287.70 L 689.90 281.90 L 686.30 276.40 L 677.90 266.10 L 673.40 261.30 L 659.10 247.30 L 665.00 248.10 L 653.30 219.60 Z" fill="#d2663c" fill-rule="nonzero" node-id="155" stroke="none" target-height="221.19998" target-width="189.79999" target-x="653.3" target-y="219.6"></path><path d="M 454.60 255.30 L 457.00 252.20 L 462.10 247.10 L 465.00 245.10 L 469.00 242.90 L 473.30 241.10 L 477.90 239.80 L 487.40 238.50 L 492.30 238.40 L 499.70 238.90 L 507.00 239.90 L 520.90 243.10 L 517.80 251.80 L 514.00 260.20 L 493.90 252.80 L 488.70 251.50 L 483.40 250.80 L 473.70 251.90 L 454.60 255.30 Z" fill="#341b32" fill-rule="nonzero" node-id="157" stroke="none" target-height="21.800018" target-width="66.30002" target-x="454.6" target-y="238.4"></path><path d="M 546.50 254.70 L 560.30 258.50 L 567.30 261.00 L 574.00 264.00 L 578.20 266.40 L 582.20 269.10 L 585.80 272.00 L 589.20 275.20 L 592.00 278.80 L 594.40 282.80 L 595.70 286.00 L 596.80 289.40 L 597.50 293.10 L 597.90 297.10 L 591.90 292.70 L 585.70 288.70 L 559.90 274.60 L 547.40 267.00 L 546.50 254.70 Z" fill="#301a2a" fill-rule="nonzero" node-id="159" stroke="none" target-height="42.40001" target-width="51.400024" target-x="546.5" target-y="254.7"></path><path d="M 362.40 302.10 L 385.40 286.20 L 391.50 282.80 L 397.80 280.00 L 402.10 278.50 L 406.60 277.40 L 411.30 276.80 L 415.20 276.70 L 418.90 277.00 L 422.60 277.70 L 426.20 278.90 L 430.80 280.90 L 435.10 283.50 L 439.10 286.60 L 442.70 290.30 L 445.70 294.20 L 448.30 298.60 L 449.80 302.10 L 450.90 305.60 L 451.60 309.30 L 452.00 313.20 L 451.60 318.50 L 449.70 324.80 L 444.80 335.70 L 444.40 316.10 L 444.00 312.90 L 442.30 306.80 L 440.90 304.00 L 439.00 301.40 L 433.40 296.10 L 430.10 293.80 L 426.50 291.90 L 422.80 290.50 L 419.00 289.50 L 415.00 288.80 L 411.10 288.60 L 403.00 289.30 L 395.30 291.50 L 388.00 295.20 L 384.70 297.50 L 381.60 300.10 L 378.80 303.10 L 375.60 306.70 L 373.00 310.60 L 370.90 314.90 L 369.30 319.30 L 368.20 323.90 L 367.60 328.60 L 367.40 333.40 L 367.60 338.20 L 368.30 342.90 L 369.70 346.00 L 371.50 348.90 L 373.60 351.50 L 377.20 355.10 L 388.90 365.00 L 382.70 364.60 L 372.30 358.90 L 362.10 352.80 L 342.30 339.80 L 363.80 343.80 L 363.10 327.40 L 361.90 318.50 L 359.50 311.70 L 350.20 305.40 L 340.50 299.80 L 339.00 290.40 L 362.40 302.10 Z" fill="#2e1420" fill-rule="nonzero" node-id="161" stroke="none" target-height="88.29999" target-width="113" target-x="339" target-y="276.7"></path><path d="M 534.30 359.60 L 536.20 354.70 L 538.60 350.10 L 541.30 345.70 L 544.40 341.60 L 547.90 337.70 L 555.60 330.90 L 559.90 327.90 L 569.10 322.90 L 578.80 319.30 L 583.90 318.00 L 594.20 316.70 L 599.40 316.70 L 604.50 317.00 L 609.60 317.80 L 614.70 319.10 L 619.60 320.80 L 624.80 323.20 L 629.60 326.10 L 634.20 329.50 L 638.40 333.40 L 642.20 337.60 L 645.60 342.20 L 648.60 347.10 L 651.10 352.20 L 653.20 357.50 L 654.60 363.00 L 655.50 368.50 L 655.80 374.20 L 655.10 382.60 L 654.20 386.70 L 651.20 395.20 L 649.10 399.40 L 646.60 403.40 L 643.60 407.10 L 641.40 409.20 L 636.40 412.60 L 633.60 413.70 L 630.60 414.40 L 627.30 414.60 L 609.40 414.30 L 573.60 411.90 L 551.80 397.20 L 544.10 393.20 L 540.00 391.60 L 524.00 390.30 L 516.20 390.80 L 512.30 391.60 L 508.60 393.00 L 498.90 398.10 L 492.60 400.60 L 479.50 404.30 L 463.60 407.60 L 461.50 408.50 L 459.80 409.80 L 458.40 411.50 L 456.20 415.60 L 452.60 429.50 L 446.00 423.60 L 448.70 405.40 L 436.20 396.70 L 432.20 393.60 L 428.40 390.20 L 425.00 386.40 L 424.10 381.30 L 423.60 365.60 L 406.00 363.20 L 401.80 362.00 L 397.80 360.20 L 395.60 358.70 L 392.60 355.30 L 391.70 353.40 L 390.90 350.70 L 390.60 347.80 L 390.90 344.80 L 391.60 341.80 L 392.70 338.90 L 396.10 333.30 L 400.50 328.60 L 403.00 326.70 L 405.70 325.20 L 411.90 323.20 L 415.30 322.80 L 418.50 323.00 L 421.60 323.80 L 424.70 324.90 L 427.60 326.50 L 431.80 329.50 L 435.70 332.90 L 442.70 340.20 L 430.10 363.30 L 448.60 364.20 L 457.90 365.30 L 467.00 367.00 L 472.90 368.50 L 478.80 370.50 L 490.00 374.70 L 511.30 384.20 L 516.70 386.00 L 524.10 387.50 L 528.00 387.70 L 529.50 383.10 L 532.80 364.20 L 534.30 359.60 Z M 546.20 348.90 L 551.00 348.90 L 560.60 349.70 L 565.20 350.70 L 569.70 352.00 L 574.10 353.80 L 578.10 356.10 L 582.00 359.00 L 585.50 362.50 L 581.20 379.80 L 578.00 388.10 L 572.00 392.90 L 559.00 400.70 L 570.70 403.40 L 585.60 405.20 L 612.60 407.20 L 622.50 407.40 L 629.10 406.80 L 632.10 405.80 L 635.60 403.40 L 637.10 401.60 L 639.90 397.70 L 642.20 393.60 L 644.00 389.30 L 645.20 384.80 L 646.00 380.20 L 646.20 375.50 L 646.00 370.70 L 645.40 366.10 L 644.30 361.40 L 642.70 356.90 L 640.80 352.50 L 638.50 348.40 L 635.80 344.50 L 632.70 340.90 L 629.30 337.70 L 625.60 334.60 L 621.70 331.90 L 617.60 329.70 L 613.20 327.90 L 604.30 325.50 L 594.90 324.60 L 590.20 324.80 L 580.90 326.10 L 571.80 328.90 L 567.50 330.80 L 559.40 335.60 L 555.70 338.50 L 552.20 341.70 L 549.00 345.10 L 546.20 348.90 Z M 412.40 328.10 L 410.60 329.40 L 409.50 330.50 L 409.10 331.50 L 409.30 333.60 L 410.10 334.60 L 411.60 335.70 L 413.70 336.50 L 415.90 336.80 L 418.20 336.60 L 419.50 336.00 L 420.70 335.20 L 422.60 332.40 L 422.80 331.20 L 422.00 329.20 L 420.00 327.70 L 418.10 327.10 L 416.10 326.90 L 414.00 327.20 L 412.40 328.10 Z M 539.40 365.30 L 546.10 364.00 L 552.50 362.10 L 556.60 360.40 L 560.50 358.20 L 564.20 355.50 L 556.70 355.00 L 552.90 355.20 L 549.40 355.70 L 547.10 356.40 L 543.30 358.70 L 541.70 360.40 L 540.50 362.50 L 539.40 365.30 Z M 427.30 377.60 L 431.20 381.70 L 435.40 385.50 L 440.10 388.70 L 445.00 391.60 L 450.20 393.90 L 455.60 395.70 L 461.20 397.10 L 466.80 397.90 L 472.50 398.20 L 478.20 398.00 L 483.80 397.10 L 489.20 395.80 L 497.00 392.60 L 504.20 388.00 L 500.60 387.60 L 490.20 381.00 L 479.10 375.40 L 467.50 371.10 L 461.60 369.50 L 455.50 368.30 L 449.30 367.50 L 442.30 367.30 L 438.60 367.50 L 435.20 368.00 L 433.00 368.60 L 431.20 369.60 L 429.60 370.90 L 428.40 372.50 L 427.60 374.70 L 427.30 377.60 Z" fill="#351d2c" fill-rule="nonzero" node-id="163" stroke="none" target-height="112.79999" target-width="265.19998" target-x="390.6" target-y="316.7"></path><path d="M 744.50 320.00 L 760.00 316.50 L 770.50 315.40 L 775.80 315.30 L 781.00 315.60 L 786.30 316.50 L 791.50 317.90 L 777.00 322.90 L 776.70 334.50 L 776.80 346.10 L 777.40 357.60 L 778.60 369.10 L 780.20 380.60 L 782.40 392.00 L 767.90 396.40 L 764.80 383.40 L 761.40 370.60 L 757.50 357.80 L 744.50 320.00 Z" fill="#cfa4a0" fill-rule="nonzero" node-id="165" stroke="none" target-height="81.100006" target-width="47" target-x="744.5" target-y="315.3"></path><path d="M 777.00 322.90 L 791.50 317.90 L 794.70 319.00 L 800.40 322.10 L 803.00 324.20 L 806.10 327.30 L 808.70 330.80 L 810.90 334.70 L 812.60 338.80 L 813.70 343.00 L 814.30 347.30 L 814.30 350.60 L 813.20 357.10 L 810.80 363.90 L 809.30 367.30 L 805.40 373.40 L 802.10 377.10 L 798.60 380.50 L 794.70 383.70 L 788.60 388.00 L 782.40 392.00 L 780.20 380.60 L 778.60 369.10 L 777.40 357.60 L 776.80 346.10 L 776.70 334.50 L 777.00 322.90 Z" fill="#dac0c6" fill-rule="nonzero" node-id="167" stroke="none" target-height="74.100006" target-width="37.599976" target-x="776.7" target-y="317.9"></path><path d="M 412.40 328.10 L 414.00 327.20 L 416.10 326.90 L 418.10 327.10 L 420.00 327.70 L 422.00 329.20 L 422.80 331.20 L 422.60 332.40 L 420.70 335.20 L 419.50 336.00 L 418.20 336.60 L 415.90 336.80 L 413.70 336.50 L 411.60 335.70 L 410.10 334.60 L 409.30 333.60 L 409.10 331.50 L 409.50 330.50 L 410.60 329.40 L 412.40 328.10 Z" fill="#95868a" fill-rule="nonzero" node-id="169" stroke="none" target-height="9.899994" target-width="13.699982" target-x="409.1" target-y="326.9"></path><path d="M 204.20 343.90 L 207.90 343.60 L 215.10 344.00 L 222.10 345.70 L 225.30 347.10 L 228.40 348.90 L 231.30 351.10 L 234.10 353.70 L 203.10 353.10 L 204.20 343.90 Z" fill="#422526" fill-rule="nonzero" node-id="171" stroke="none" target-height="10.100006" target-width="31" target-x="203.1" target-y="343.6"></path><path d="M 427.30 377.60 L 427.60 374.70 L 428.40 372.50 L 429.60 370.90 L 431.20 369.60 L 433.00 368.60 L 435.20 368.00 L 438.60 367.50 L 449.30 367.50 L 455.50 368.30 L 461.60 369.50 L 473.40 373.00 L 484.80 378.00 L 490.20 381.00 L 500.60 387.60 L 482.30 385.30 L 445.80 379.00 L 436.60 378.00 L 427.30 377.60 Z" fill="#cf9b99" fill-rule="nonzero" node-id="173" stroke="none" target-height="20.100006" target-width="73.30002" target-x="427.3" target-y="367.5"></path><path d="M 172.50 385.90 L 178.30 384.60 L 201.60 377.50 L 207.40 376.40 L 211.40 375.90 L 219.40 376.30 L 225.40 381.40 L 222.50 382.90 L 219.60 383.90 L 216.60 384.50 L 212.00 384.80 L 193.00 383.70 L 188.30 384.00 L 191.70 386.40 L 195.30 388.40 L 199.10 390.00 L 204.90 391.80 L 223.10 395.50 L 224.40 402.60 L 213.00 402.30 L 198.80 400.30 L 190.40 398.50 L 173.80 394.20 L 172.50 385.90 Z" fill="#4a2b39" fill-rule="nonzero" node-id="175" stroke="none" target-height="26.700012" target-width="52.899994" target-x="172.5" target-y="375.9"></path><path d="M 427.30 377.60 L 436.60 378.00 L 445.80 379.00 L 482.30 385.30 L 491.40 386.70 L 504.20 388.00 L 497.00 392.60 L 489.20 395.80 L 483.80 397.10 L 478.20 398.00 L 472.50 398.20 L 466.80 397.90 L 461.20 397.10 L 455.60 395.70 L 450.20 393.90 L 445.00 391.60 L 440.10 388.70 L 435.40 385.50 L 431.20 381.70 L 427.30 377.60 Z" fill="#ab4852" fill-rule="nonzero" node-id="177" stroke="none" target-height="20.600006" target-width="76.900024" target-x="427.3" target-y="377.6"></path><path d="M 505.00 395.00 L 508.60 393.00 L 512.30 391.60 L 516.20 390.80 L 524.00 390.30 L 540.00 391.60 L 548.00 395.10 L 557.30 400.80 L 568.00 408.40 L 573.60 411.90 L 579.70 418.20 L 554.90 417.30 L 530.10 416.90 L 529.90 421.90 L 555.80 423.70 L 564.40 424.60 L 572.90 425.90 L 581.40 427.70 L 585.50 437.40 L 570.10 436.40 L 562.50 435.50 L 554.90 434.20 L 545.10 431.40 L 540.40 429.40 L 535.90 438.00 L 533.30 442.30 L 530.40 446.30 L 528.20 448.70 L 523.20 452.50 L 520.40 453.80 L 517.30 454.60 L 513.70 454.90 L 506.20 454.40 L 498.90 453.20 L 491.50 451.40 L 484.40 449.00 L 477.50 446.10 L 470.80 442.70 L 464.30 438.80 L 458.30 434.40 L 452.60 429.50 L 456.20 415.60 L 458.40 411.50 L 459.80 409.80 L 461.50 408.50 L 463.60 407.60 L 479.50 404.30 L 486.10 402.60 L 492.60 400.60 L 498.90 398.10 L 505.00 395.00 Z" fill="#f0e8ed" fill-rule="nonzero" node-id="179" stroke="none" target-height="64.600006" target-width="132.9" target-x="452.6" target-y="390.3"></path><path d="M 289.90 411.30 L 309.90 407.50 L 350.30 401.80 L 349.00 415.60 L 339.40 416.70 L 332.30 417.80 L 325.30 419.50 L 318.40 421.60 L 305.00 426.90 L 295.20 431.60 L 285.80 436.80 L 280.50 423.00 L 289.90 411.30 Z" fill="#e5d7d7" fill-rule="nonzero" node-id="181" stroke="none" target-height="35" target-width="69.79999" target-x="280.5" target-y="401.8"></path><path d="M 252.30 430.90 L 255.70 427.40 L 259.30 424.30 L 263.20 421.70 L 267.40 419.40 L 276.20 415.60 L 289.90 411.30 L 280.50 423.00 L 285.80 436.80 L 260.50 453.00 L 251.90 458.10 L 249.40 444.10 L 249.10 440.60 L 249.40 437.20 L 249.90 435.10 L 250.90 433.00 L 252.30 430.90 Z" fill="#cb7341" fill-rule="nonzero" node-id="183" stroke="none" target-height="46.80002" target-width="40.799988" target-x="249.1" target-y="411.3"></path><path d="M 384.00 411.50 L 397.10 425.20 L 400.80 428.20 L 404.80 430.70 L 408.40 431.80 L 415.40 432.70 L 418.90 432.60 L 423.60 431.90 L 428.30 430.90 L 432.90 429.40 L 439.60 426.70 L 446.00 423.60 L 458.30 434.40 L 464.30 438.80 L 470.80 442.70 L 477.50 446.10 L 484.40 449.00 L 491.50 451.40 L 498.90 453.20 L 506.20 454.40 L 513.70 454.90 L 517.30 454.60 L 520.40 453.80 L 523.20 452.50 L 528.20 448.70 L 530.40 446.30 L 533.30 442.30 L 535.90 438.00 L 540.40 429.40 L 545.10 431.40 L 554.90 434.20 L 562.50 435.50 L 570.10 436.40 L 585.50 437.40 L 604.80 440.30 L 628.80 445.30 L 657.40 451.70 L 671.80 454.60 L 675.40 461.50 L 661.00 458.90 L 618.00 449.80 L 598.70 446.50 L 583.90 444.80 L 562.10 440.30 L 556.80 439.80 L 553.30 439.80 L 549.90 440.30 L 546.70 441.10 L 543.60 442.50 L 540.70 444.40 L 531.90 452.50 L 513.30 467.90 L 505.90 475.60 L 502.50 479.80 L 496.20 489.10 L 490.40 498.60 L 469.00 537.90 L 462.30 528.40 L 457.00 522.00 L 451.40 515.90 L 448.40 513.20 L 445.40 511.10 L 442.30 509.60 L 439.10 508.50 L 435.80 507.80 L 429.00 507.50 L 425.50 508.00 L 420.90 509.10 L 416.50 510.70 L 412.20 512.90 L 408.10 515.50 L 404.40 518.50 L 401.00 521.70 L 403.40 503.30 L 404.20 494.10 L 404.50 484.80 L 404.30 478.70 L 402.90 466.50 L 401.60 460.50 L 399.80 454.60 L 384.00 411.50 Z" fill="#3f1a2d" fill-rule="nonzero" node-id="185" stroke="none" target-height="126.400024" target-width="291.40002" target-x="384" target-y="411.5"></path><path d="M 190.80 428.20 L 192.30 425.50 L 194.10 423.50 L 196.00 422.10 L 200.60 420.40 L 207.30 420.10 L 219.50 421.00 L 221.30 429.70 L 206.00 429.30 L 190.80 428.20 Z" fill="#3d1b29" fill-rule="nonzero" node-id="187" stroke="none" target-height="9.600006" target-width="30.5" target-x="190.8" target-y="420.1"></path><path d="M 182.50 444.40 L 192.10 443.50 L 220.50 438.70 L 219.10 441.60 L 217.40 443.90 L 215.40 445.80 L 210.60 448.50 L 203.50 450.30 L 185.00 451.80 L 180.90 452.40 L 182.50 444.40 Z" fill="#492831" fill-rule="nonzero" node-id="189" stroke="none" target-height="13.699982" target-width="39.600006" target-x="180.9" target-y="438.7"></path><path d="M 257.90 465.20 L 272.60 453.00 L 277.70 449.20 L 288.40 442.30 L 291.10 449.50 L 294.20 456.40 L 297.80 463.00 L 301.90 469.40 L 306.20 475.60 L 310.90 481.60 L 321.10 492.90 L 334.90 506.00 L 350.70 519.20 L 358.30 524.50 L 366.20 529.30 L 374.30 533.70 L 382.70 537.60 L 391.30 541.00 L 396.50 517.10 L 395.60 525.00 L 395.70 529.10 L 396.10 533.10 L 396.90 537.00 L 398.10 540.70 L 399.80 544.30 L 402.00 547.60 L 404.80 550.70 L 407.50 553.20 L 410.50 555.20 L 413.60 556.80 L 420.20 559.00 L 423.80 559.60 L 434.70 560.40 L 445.40 560.20 L 438.00 566.10 L 457.30 570.90 L 476.60 575.30 L 496.10 579.20 L 515.60 582.80 L 535.30 585.90 L 554.90 588.60 L 574.70 590.80 L 594.40 592.60 L 578.40 593.30 L 562.40 594.40 L 546.40 595.90 L 565.60 606.50 L 558.40 610.90 L 539.60 607.90 L 520.70 605.90 L 530.40 609.20 L 540.20 612.00 L 560.00 617.10 L 551.40 631.20 L 542.30 644.90 L 538.70 642.40 L 531.30 638.20 L 525.40 635.60 L 519.40 633.40 L 494.80 627.00 L 482.70 623.50 L 470.70 619.60 L 417.20 600.80 L 399.30 594.80 L 387.20 591.20 L 375.10 587.90 L 362.80 585.00 L 373.90 568.60 L 387.40 575.00 L 401.00 580.80 L 414.90 586.30 L 429.00 591.10 L 443.20 595.50 L 457.60 599.30 L 445.00 593.70 L 406.70 578.30 L 390.00 570.60 L 381.90 566.30 L 366.50 557.20 L 351.20 547.90 L 321.10 528.50 L 303.00 515.10 L 294.10 508.00 L 285.60 500.50 L 280.20 495.30 L 270.20 484.10 L 265.70 478.10 L 261.60 471.80 L 257.90 465.20 Z" fill="#cca7a0" fill-rule="nonzero" node-id="191" stroke="none" target-height="202.60004" target-width="336.50003" target-x="257.9" target-y="442.3"></path><path d="M 537.90 447.20 L 540.70 444.40 L 543.60 442.50 L 546.70 441.10 L 549.90 440.30 L 553.30 439.80 L 556.80 439.80 L 562.10 440.30 L 583.90 444.80 L 589.00 445.40 L 592.40 466.20 L 583.60 460.60 L 571.00 453.70 L 564.40 450.60 L 551.00 445.30 L 578.60 466.30 L 593.20 479.00 L 603.90 489.90 L 608.90 495.80 L 613.60 501.90 L 618.00 508.30 L 623.10 516.70 L 627.60 525.40 L 631.60 534.30 L 635.10 543.50 L 638.00 552.80 L 640.40 562.30 L 640.30 583.20 L 632.90 586.00 L 625.40 588.30 L 617.80 590.20 L 610.10 591.60 L 602.30 592.40 L 594.40 592.60 L 574.70 590.80 L 554.90 588.60 L 535.30 585.90 L 515.60 582.80 L 496.10 579.20 L 476.60 575.30 L 457.30 570.90 L 438.00 566.10 L 458.50 550.40 L 464.90 544.00 L 469.00 537.90 L 490.40 498.60 L 496.20 489.10 L 502.50 479.80 L 505.90 475.60 L 513.30 467.90 L 531.90 452.50 L 537.90 447.20 Z M 566.10 476.40 L 572.80 487.90 L 584.00 504.50 L 590.80 515.90 L 595.70 526.70 L 602.90 546.40 L 605.00 551.20 L 608.50 557.20 L 610.70 560.00 L 609.40 552.00 L 607.60 544.20 L 605.40 536.50 L 602.60 528.90 L 599.50 521.40 L 595.90 514.20 L 591.90 507.20 L 587.50 500.40 L 582.60 493.90 L 577.50 487.70 L 572.00 481.90 L 566.10 476.40 Z" fill="#f5ecea" fill-rule="nonzero" node-id="193" stroke="none" target-height="152.79999" target-width="202.40002" target-x="438" target-y="439.8"></path><path d="M 684.00 441.00 L 694.30 443.50 L 704.50 446.40 L 744.90 459.50 L 755.10 462.50 L 765.40 465.00 L 765.20 489.30 L 756.10 489.30 L 747.10 488.80 L 719.90 485.90 L 701.90 484.70 L 692.90 484.90 L 686.90 485.30 L 680.90 486.30 L 674.90 487.60 L 681.10 492.30 L 687.60 496.60 L 714.80 512.20 L 721.30 516.40 L 727.60 521.00 L 735.20 528.00 L 740.30 534.00 L 741.40 536.00 L 742.00 538.20 L 742.20 541.50 L 741.90 545.10 L 738.80 559.10 L 719.80 550.30 L 706.80 545.50 L 700.10 543.80 L 678.00 539.70 L 667.90 526.40 L 662.50 520.10 L 654.00 511.10 L 635.80 494.20 L 607.90 469.30 L 598.90 460.80 L 590.20 451.90 L 589.00 445.40 L 598.70 446.50 L 618.00 449.80 L 661.00 458.90 L 675.40 461.50 L 671.80 454.60 L 684.00 441.00 Z" fill="#df7f47" fill-rule="nonzero" node-id="195" stroke="none" target-height="118.099976" target-width="176.40002" target-x="589" target-y="441"></path><path d="M 589.80 464.50 L 599.80 471.70 L 614.00 483.30 L 624.30 492.50 L 654.50 520.90 L 664.70 530.10 L 675.20 539.10 L 675.60 545.20 L 675.50 551.40 L 674.80 557.50 L 673.50 563.50 L 671.60 569.30 L 669.10 574.90 L 664.30 582.70 L 658.10 589.70 L 656.40 590.80 L 654.40 591.40 L 646.00 591.90 L 645.60 582.90 L 644.90 574.00 L 643.60 565.20 L 642.00 556.30 L 639.90 547.60 L 637.30 539.00 L 634.40 530.60 L 631.10 522.30 L 627.30 514.20 L 623.10 506.30 L 618.50 498.70 L 613.60 491.30 L 608.20 484.10 L 602.40 477.30 L 596.30 470.70 L 589.80 464.50 Z" fill="#e48c49" fill-rule="nonzero" node-id="197" stroke="none" target-height="127.400024" target-width="85.79999" target-x="589.8" target-y="464.5"></path><path d="M 830.70 490.30 L 858.70 481.20 L 886.40 471.10 L 888.70 483.60 L 879.30 486.50 L 869.70 489.00 L 856.80 491.10 L 850.30 491.60 L 843.80 491.70 L 837.30 491.20 L 830.70 490.30 Z" fill="#b3674a" fill-rule="nonzero" node-id="199" stroke="none" target-height="20.600006" target-width="58" target-x="830.7" target-y="471.1"></path><path d="M 831.40 499.20 L 842.00 498.00 L 848.00 503.20 L 866.60 514.50 L 871.40 518.00 L 874.30 520.50 L 876.90 523.40 L 879.30 526.70 L 875.20 526.30 L 867.50 524.50 L 861.90 522.50 L 839.90 513.10 L 831.50 510.50 L 831.40 499.20 Z" fill="#c08966" fill-rule="nonzero" node-id="201" stroke="none" target-height="28.700012" target-width="47.899963" target-x="831.4" target-y="498"></path><path d="M 401.00 521.70 L 404.40 518.50 L 408.10 515.50 L 412.20 512.90 L 416.50 510.70 L 420.90 509.10 L 425.50 508.00 L 429.00 507.50 L 435.80 507.80 L 439.10 508.50 L 442.30 509.60 L 445.40 511.10 L 448.40 513.20 L 451.40 515.90 L 450.50 545.30 L 442.90 549.20 L 438.80 550.80 L 434.60 552.00 L 430.40 552.70 L 426.20 552.90 L 423.00 552.70 L 419.90 552.00 L 416.90 551.00 L 413.80 549.50 L 411.40 548.00 L 409.40 546.30 L 407.70 544.40 L 405.70 541.10 L 404.20 537.40 L 402.20 529.50 L 401.00 521.70 Z" fill="#c76778" fill-rule="nonzero" node-id="203" stroke="none" target-height="45.400024" target-width="50.399994" target-x="401" target-y="507.5"></path><path d="M 834.20 511.30 L 839.90 513.10 L 845.50 515.30 L 861.90 522.50 L 871.30 525.60 L 881.00 526.90 L 884.40 528.30 L 886.70 530.10 L 888.60 532.30 L 890.10 534.80 L 890.90 537.30 L 891.10 539.00 L 890.80 540.50 L 890.20 542.00 L 889.20 543.10 L 887.70 544.10 L 885.40 544.90 L 880.40 543.30 L 875.70 541.40 L 871.10 539.20 L 864.60 535.30 L 852.10 526.00 L 834.20 511.30 Z" fill="#89462d" fill-rule="nonzero" node-id="205" stroke="none" target-height="33.600037" target-width="56.899963" target-x="834.2" target-y="511.3"></path><path d="M 451.40 515.90 L 457.00 522.00 L 462.30 528.40 L 467.20 535.20 L 450.50 545.30 L 451.40 515.90 Z" fill="#874353" fill-rule="nonzero" node-id="207" stroke="none" target-height="29.399963" target-width="16.700012" target-x="450.5" target-y="515.9"></path><path d="M 320.60 539.70 L 329.80 543.90 L 338.70 548.60 L 373.90 568.60 L 338.00 622.30 L 326.60 641.60 L 323.80 647.20 L 321.50 653.00 L 313.90 676.70 L 311.70 682.50 L 304.90 698.40 L 301.30 708.70 L 298.30 719.10 L 295.90 729.70 L 294.10 740.40 L 292.90 751.20 L 292.30 762.10 L 292.30 773.10 L 288.50 768.80 L 289.40 758.00 L 289.60 747.10 L 288.30 703.90 L 285.30 695.90 L 281.70 688.10 L 270.00 664.80 L 266.70 657.00 L 264.80 651.60 L 263.40 646.20 L 262.40 640.60 L 261.90 632.20 L 262.90 623.20 L 269.20 629.10 L 275.20 635.40 L 292.20 655.10 L 298.20 661.30 L 302.40 665.20 L 306.80 668.80 L 311.60 672.20 L 311.80 667.80 L 311.50 663.50 L 310.70 659.30 L 308.80 653.20 L 297.70 625.80 L 294.50 616.20 L 291.90 606.40 L 290.40 599.00 L 289.40 591.50 L 288.80 583.90 L 288.70 576.30 L 294.90 580.10 L 300.90 584.30 L 323.90 602.10 L 329.90 606.30 L 336.10 610.20 L 334.90 601.20 L 333.10 592.40 L 324.20 557.40 L 320.60 539.70 Z" fill="#dd8c50" fill-rule="nonzero" node-id="209" stroke="none" target-height="233.39996" target-width="112" target-x="261.9" target-y="539.7"></path><path d="M 640.40 562.30 L 642.50 575.80 L 644.00 589.40 L 634.70 618.60 L 615.50 617.50 L 596.40 615.90 L 583.70 614.50 L 558.40 610.90 L 565.60 606.50 L 546.40 595.90 L 562.40 594.40 L 578.40 593.30 L 602.30 592.40 L 610.10 591.60 L 617.80 590.20 L 625.40 588.30 L 632.90 586.00 L 640.30 583.20 L 640.40 562.30 Z" fill="#cb9697" fill-rule="nonzero" node-id="211" stroke="none" target-height="56.299988" target-width="97.599976" target-x="546.4" target-y="562.3"></path><path d="M 752.70 595.80 L 762.40 595.40 L 766.20 600.30 L 769.50 605.40 L 772.40 610.80 L 774.80 616.40 L 776.60 622.10 L 777.80 628.00 L 778.30 632.50 L 778.30 637.00 L 778.00 641.70 L 777.20 646.40 L 773.40 645.30 L 770.00 643.70 L 766.80 641.50 L 761.40 636.10 L 759.00 632.90 L 755.90 627.70 L 753.20 622.20 L 748.90 611.40 L 756.50 617.40 L 771.30 630.00 L 770.20 625.70 L 768.80 621.60 L 767.00 617.70 L 763.80 612.00 L 752.70 595.80 Z" fill="#4b1e26" fill-rule="nonzero" node-id="213" stroke="none" target-height="51" target-width="29.399963" target-x="748.9" target-y="595.4"></path><path d="M 560.00 617.10 L 574.10 620.90 L 563.30 643.10 L 598.50 642.30 L 573.40 665.60 L 547.70 688.10 L 572.10 698.40 L 580.20 702.20 L 588.00 706.30 L 595.60 710.80 L 600.40 714.20 L 604.90 717.90 L 610.70 723.40 L 612.40 726.30 L 613.10 728.80 L 613.40 731.50 L 613.60 742.40 L 603.10 743.60 L 592.60 744.20 L 582.20 744.30 L 561.40 743.10 L 535.40 739.60 L 489.00 731.40 L 495.50 736.30 L 502.30 740.60 L 509.40 744.60 L 520.20 749.80 L 531.40 754.60 L 565.30 768.30 L 576.20 773.60 L 583.20 777.50 L 590.10 781.90 L 596.60 786.80 L 592.50 793.70 L 588.10 800.70 L 585.70 803.90 L 581.00 808.60 L 576.40 811.50 L 571.70 812.40 L 566.90 812.80 L 547.60 812.50 L 543.00 812.20 L 538.60 811.50 L 534.40 810.30 L 528.10 808.00 L 516.20 802.00 L 498.60 791.80 L 492.60 788.90 L 486.30 786.50 L 488.40 792.40 L 490.90 797.90 L 493.90 803.00 L 497.40 807.90 L 501.20 812.50 L 505.40 816.80 L 512.20 822.80 L 519.40 828.50 L 549.50 849.20 L 544.80 851.90 L 513.40 848.20 L 503.10 846.40 L 496.20 844.80 L 489.50 842.90 L 470.10 835.80 L 457.30 831.50 L 444.30 827.70 L 431.20 824.40 L 417.90 821.40 L 424.60 816.10 L 431.00 810.60 L 437.00 804.70 L 442.80 798.60 L 450.10 790.00 L 457.00 781.10 L 463.60 771.90 L 475.60 752.80 L 518.10 680.90 L 525.70 668.60 L 533.80 656.60 L 546.90 638.10 L 560.00 617.10 Z" fill="#e0914f" fill-rule="nonzero" node-id="215" stroke="none" target-height="234.80005" target-width="195.69998" target-x="417.9" target-y="617.1"></path><path d="M 574.10 620.90 L 578.90 622.00 L 583.80 622.50 L 603.70 622.80 L 613.60 623.50 L 606.50 633.30 L 598.50 642.30 L 563.30 643.10 L 574.10 620.90 Z" fill="#c7693d" fill-rule="nonzero" node-id="217" stroke="none" target-height="22.199951" target-width="50.299988" target-x="563.3" target-y="620.9"></path><path d="M 168.00 642.10 L 199.30 634.60 L 204.20 635.50 L 209.10 636.90 L 213.90 638.70 L 222.90 643.40 L 231.20 649.40 L 238.60 656.30 L 239.80 662.40 L 240.00 665.60 L 239.40 672.10 L 237.60 678.30 L 236.20 681.10 L 219.60 704.10 L 212.70 698.90 L 186.30 676.60 L 179.40 671.50 L 174.70 668.20 L 161.90 660.90 L 159.60 658.90 L 157.80 656.50 L 156.40 653.60 L 168.10 652.50 L 179.90 652.20 L 168.00 642.10 Z" fill="#f6ede8" fill-rule="nonzero" node-id="219" stroke="none" target-height="69.5" target-width="83.600006" target-x="156.4" target-y="634.6"></path><path d="M 569.90 691.40 L 574.90 687.70 L 580.10 684.30 L 585.40 681.30 L 593.70 677.30 L 619.00 665.90 L 629.80 659.90 L 634.90 656.50 L 643.60 659.00 L 679.30 667.30 L 693.70 671.80 L 704.70 676.70 L 709.90 679.70 L 714.90 683.20 L 722.60 689.90 L 724.90 692.90 L 726.70 696.10 L 729.10 703.20 L 729.80 707.00 L 731.10 718.30 L 711.10 711.50 L 723.90 727.40 L 707.40 741.70 L 695.00 731.40 L 692.80 739.10 L 683.20 735.80 L 671.90 730.30 L 665.30 726.40 L 639.90 709.60 L 624.40 696.70 L 616.40 690.50 L 608.10 684.60 L 598.70 687.20 L 589.20 689.20 L 576.40 691.00 L 569.90 691.40 Z" fill="#e7884b" fill-rule="nonzero" node-id="221" stroke="none" target-height="85.20001" target-width="161.19995" target-x="569.9" target-y="656.5"></path><path d="M 164.60 662.60 L 169.70 665.30 L 179.40 671.50 L 186.30 676.60 L 212.70 698.90 L 219.60 704.10 L 234.50 683.80 L 238.80 697.50 L 240.50 704.40 L 241.80 711.40 L 240.80 716.50 L 239.30 721.30 L 237.30 725.70 L 234.80 730.00 L 232.00 734.10 L 228.80 737.90 L 223.60 743.30 L 218.00 748.30 L 188.70 717.00 L 179.20 706.40 L 170.00 695.50 L 161.20 684.30 L 159.10 680.90 L 157.30 677.20 L 154.30 669.80 L 164.60 662.60 Z" fill="#d5afaa" fill-rule="nonzero" node-id="223" stroke="none" target-height="85.70001" target-width="87.5" target-x="154.3" target-y="662.6"></path><path d="M 247.20 683.40 L 254.30 686.30 L 261.20 689.60 L 281.40 700.50 L 288.30 703.90 L 289.60 747.10 L 289.40 758.00 L 288.50 768.80 L 280.60 759.70 L 273.10 750.20 L 268.40 743.50 L 264.10 736.70 L 260.10 729.60 L 256.50 722.40 L 253.50 714.90 L 250.90 707.30 L 249.40 701.50 L 247.50 689.50 L 247.20 683.40 Z" fill="#d67a41" fill-rule="nonzero" node-id="225" stroke="none" target-height="85.39996" target-width="42.40001" target-x="247.2" target-y="683.4"></path><path d="M 608.10 684.60 L 616.40 690.50 L 624.40 696.70 L 639.90 709.60 L 634.10 723.00 L 622.50 716.10 L 615.30 710.80 L 610.50 706.20 L 608.60 702.80 L 608.00 699.90 L 607.70 696.90 L 608.10 684.60 Z" fill="#b44e37" fill-rule="nonzero" node-id="227" stroke="none" target-height="38.400024" target-width="32.200012" target-x="607.7" target-y="684.6"></path><path d="M 292.30 773.10 L 292.30 762.10 L 292.90 751.20 L 294.10 740.40 L 295.90 729.70 L 298.30 719.10 L 301.30 708.70 L 304.90 698.40 L 309.10 688.20 L 308.10 695.50 L 307.50 702.70 L 307.50 709.90 L 308.00 717.20 L 308.90 724.40 L 310.40 731.50 L 312.30 738.40 L 314.80 745.20 L 317.70 751.90 L 321.10 758.20 L 325.00 764.30 L 329.50 770.20 L 333.50 775.20 L 342.30 784.50 L 347.10 788.70 L 353.70 794.00 L 360.70 798.80 L 368.00 803.20 L 383.20 811.00 L 391.10 814.30 L 403.20 818.80 L 415.30 822.80 L 387.50 837.40 L 375.70 832.20 L 364.20 826.50 L 352.90 820.40 L 341.80 813.70 L 331.10 806.60 L 320.80 799.00 L 313.20 792.90 L 299.00 780.00 L 292.30 773.10 Z" fill="#caa29d" fill-rule="nonzero" node-id="229" stroke="none" target-height="149.20001" target-width="123" target-x="292.3" target-y="688.2"></path><path d="M 241.80 711.40 L 253.60 735.40 L 256.60 743.70 L 257.60 748.00 L 253.80 752.00 L 246.70 757.90 L 240.20 761.50 L 237.80 761.80 L 235.60 761.70 L 233.50 761.20 L 230.50 759.90 L 227.70 758.00 L 225.10 755.70 L 218.00 748.30 L 223.60 743.30 L 228.80 737.90 L 232.00 734.10 L 234.80 730.00 L 237.30 725.70 L 239.30 721.30 L 240.80 716.50 L 241.80 711.40 Z" fill="#c6816e" fill-rule="nonzero" node-id="231" stroke="none" target-height="50.399963" target-width="39.600006" target-x="218" target-y="711.4"></path><path d="M 639.90 709.60 L 665.30 726.40 L 671.90 730.30 L 683.20 735.80 L 687.90 737.60 L 697.10 740.30 L 694.70 742.80 L 692.00 744.70 L 689.20 746.00 L 686.10 746.90 L 682.90 747.40 L 679.50 747.50 L 674.50 747.10 L 669.40 746.10 L 664.50 744.70 L 660.00 743.20 L 650.00 738.20 L 645.10 735.20 L 640.70 731.70 L 638.10 729.10 L 635.90 726.20 L 634.10 723.00 L 639.90 709.60 Z" fill="#d1673c" fill-rule="nonzero" node-id="233" stroke="none" target-height="37.900024" target-width="63" target-x="634.1" target-y="709.6"></path><path d="M 707.60 807.90 L 718.10 805.00 L 728.70 802.70 L 743.00 800.70 L 750.20 800.20 L 742.40 818.10 L 751.50 809.00 L 760.10 799.40 L 776.50 804.40 L 769.50 812.20 L 766.20 816.30 L 763.40 820.80 L 771.90 816.10 L 780.10 811.00 L 789.90 820.50 L 773.50 830.70 L 792.90 830.30 L 792.80 843.60 L 783.80 841.60 L 765.90 838.60 L 711.50 832.70 L 707.60 807.90 Z" fill="#ede7ec" fill-rule="nonzero" node-id="235" stroke="none" target-height="44.19995" target-width="85.30005" target-x="707.6" target-y="799.4"></path><path d="M 680.00 817.80 L 680.50 815.80 L 682.60 812.70 L 684.80 810.90 L 692.50 806.60 L 697.90 825.10 L 706.60 862.60 L 683.70 868.50 L 680.70 851.70 L 679.60 843.30 L 678.90 834.80 L 678.90 829.10 L 680.00 817.80 Z" fill="#ce6f3c" fill-rule="nonzero" node-id="237" stroke="none" target-height="61.900024" target-width="27.699951" target-x="678.9" target-y="806.6"></path><path d="M 715.30 859.90 L 712.10 851.60 L 709.50 843.10 L 707.10 831.40 L 706.50 825.50 L 706.30 819.60 L 706.70 813.70 L 707.60 807.90 L 711.50 832.70 L 765.90 838.60 L 783.80 841.60 L 792.80 843.60 L 792.00 859.90 L 734.50 860.20 L 715.30 859.90 Z" fill="#d29ba5" fill-rule="nonzero" node-id="239" stroke="none" target-height="52.299988" target-width="86.5" target-x="706.3" target-y="807.9"></path><path d="M 165.40 813.60 L 169.80 815.20 L 173.80 817.10 L 177.50 819.50 L 184.10 825.30 L 191.20 833.90 L 202.60 850.50 L 231.90 843.40 L 225.70 850.10 L 222.90 853.70 L 220.60 857.60 L 219.30 860.30 L 217.70 866.20 L 219.60 869.60 L 221.80 872.70 L 224.30 875.40 L 230.10 880.10 L 233.30 882.10 L 243.60 887.10 L 254.10 891.20 L 269.50 895.80 L 284.90 899.80 L 300.50 903.30 L 316.10 906.30 L 331.90 908.80 L 347.70 910.90 L 371.50 913.40 L 395.40 915.30 L 443.20 917.90 L 475.30 918.80 L 507.40 919.30 L 550.30 918.90 L 593.10 917.20 L 614.40 915.70 L 635.70 913.80 L 657.00 911.30 L 678.20 908.20 L 699.30 904.50 L 736.20 896.90 L 756.40 891.40 L 772.00 885.60 L 779.50 882.10 L 786.90 878.20 L 794.10 873.80 L 796.20 872.40 L 799.60 869.10 L 801.70 866.10 L 803.30 862.90 L 804.50 859.40 L 809.90 840.00 L 811.40 836.30 L 813.50 832.90 L 815.20 831.00 L 817.30 829.40 L 819.90 828.00 L 823.70 847.30 L 834.70 836.90 L 841.20 831.80 L 847.00 828.70 L 850.10 827.70 L 853.40 827.10 L 857.00 826.80 L 856.40 831.60 L 854.10 840.60 L 851.60 847.20 L 842.80 866.50 L 861.70 854.50 L 866.70 851.70 L 871.70 849.60 L 875.20 848.60 L 878.60 848.20 L 882.00 848.20 L 887.00 849.50 L 892.30 852.50 L 890.90 857.00 L 887.70 861.60 L 885.20 864.10 L 874.40 873.40 L 877.40 875.10 L 888.20 879.80 L 891.70 881.50 L 894.80 883.50 L 896.60 885.10 L 899.10 888.80 L 899.80 890.90 L 900.10 893.30 L 899.50 898.50 L 898.70 900.50 L 897.60 902.20 L 895.30 904.50 L 892.50 906.40 L 886.80 909.70 L 879.40 912.70 L 864.40 917.70 L 852.90 920.80 L 818.00 928.30 L 794.70 932.40 L 771.40 936.00 L 748.00 939.20 L 724.60 942.00 L 693.30 945.10 L 661.90 947.50 L 630.50 949.40 L 599.00 950.70 L 567.60 951.50 L 536.10 951.90 L 488.80 951.90 L 441.70 951.30 L 384.50 948.70 L 355.90 947.10 L 327.20 945.00 L 289.20 941.30 L 270.30 939.00 L 251.40 936.20 L 232.60 932.90 L 214.00 929.10 L 186.20 922.40 L 158.70 914.10 L 144.00 908.20 L 136.10 904.10 L 130.60 900.10 L 128.20 897.70 L 126.10 894.90 L 124.30 891.80 L 124.00 888.80 L 124.20 886.20 L 124.90 884.00 L 126.00 881.90 L 129.30 878.20 L 132.50 875.90 L 150.30 866.60 L 140.00 855.20 L 130.20 843.40 L 133.90 841.90 L 137.50 841.10 L 140.90 840.80 L 147.70 841.60 L 151.10 842.60 L 156.00 844.50 L 175.30 854.90 L 180.00 857.20 L 172.30 841.40 L 167.80 830.80 L 166.20 825.20 L 165.60 821.50 L 165.40 813.60 Z" fill="#93a281" fill-rule="nonzero" node-id="241" stroke="none" target-height="138.30005" target-width="776.1" target-x="124" target-y="813.6"></path><path d="M 594.30 813.80 L 607.30 813.10 L 607.20 837.70 L 606.30 851.40 L 605.40 856.70 L 602.80 865.70 L 599.10 872.80 L 596.80 876.20 L 590.10 876.10 L 583.40 875.50 L 576.80 874.50 L 570.30 873.00 L 561.70 870.50 L 553.40 867.40 L 545.20 863.80 L 562.50 852.80 L 567.90 848.70 L 571.80 844.80 L 575.20 840.50 L 578.40 836.00 L 587.30 822.10 L 590.60 817.80 L 594.30 813.80 Z" fill="#cc693e" fill-rule="nonzero" node-id="243" stroke="none" target-height="63.100037" target-width="62.099976" target-x="545.2" target-y="813.1"></path><path d="M 616.40 878.90 L 622.50 869.00 L 628.50 856.00 L 631.50 848.00 L 642.70 815.30 L 649.20 817.50 L 662.20 853.60 L 667.40 865.20 L 670.50 870.90 L 661.60 873.20 L 652.70 875.10 L 643.60 876.50 L 634.60 877.60 L 616.40 878.90 Z" fill="#cb6b3b" fill-rule="nonzero" node-id="245" stroke="none" target-height="63.600037" target-width="54.099976" target-x="616.4" target-y="815.3"></path><path d="M 415.30 822.80 L 417.90 821.40 L 431.20 824.40 L 444.30 827.70 L 457.30 831.50 L 470.10 835.80 L 489.50 842.90 L 496.20 844.80 L 503.10 846.40 L 513.40 848.20 L 544.80 851.90 L 540.30 855.00 L 535.70 857.40 L 530.90 859.20 L 526.00 860.50 L 520.90 861.50 L 515.70 862.00 L 507.80 862.30 L 499.90 862.00 L 484.30 860.90 L 467.80 858.60 L 451.40 855.70 L 435.10 852.10 L 423.00 849.00 L 411.00 845.50 L 399.20 841.70 L 387.50 837.40 L 415.30 822.80 Z" fill="#cd5e3c" fill-rule="nonzero" node-id="247" stroke="none" target-height="40.899963" target-width="157.29999" target-x="387.5" target-y="821.4"></path><path d="M 344.90 825.00 L 354.70 830.50 L 364.70 835.70 L 374.80 840.30 L 385.10 844.60 L 399.20 849.70 L 413.40 854.10 L 427.90 858.00 L 442.40 861.40 L 457.10 864.50 L 471.70 867.10 L 480.90 868.30 L 490.10 869.00 L 499.30 869.20 L 526.90 868.40 L 535.40 868.70 L 545.70 870.90 L 563.80 876.90 L 576.80 880.30 L 583.40 881.50 L 593.40 882.70 L 613.60 883.70 L 632.20 883.50 L 648.80 881.70 L 661.20 879.50 L 698.30 871.80 L 710.70 869.50 L 723.20 867.90 L 739.80 866.60 L 785.50 866.60 L 798.00 866.20 L 798.90 847.20 L 799.10 828.30 L 802.50 842.00 L 805.40 855.90 L 803.30 862.90 L 801.70 866.10 L 799.60 869.10 L 796.20 872.40 L 786.90 878.20 L 779.50 882.10 L 772.00 885.60 L 756.40 891.40 L 736.20 896.90 L 723.90 899.60 L 699.30 904.50 L 678.20 908.20 L 657.00 911.30 L 635.70 913.80 L 614.40 915.70 L 593.10 917.20 L 571.70 918.30 L 528.80 919.30 L 475.30 918.80 L 443.20 917.90 L 419.30 916.70 L 395.40 915.30 L 371.50 913.40 L 347.70 910.90 L 331.90 908.80 L 316.10 906.30 L 300.50 903.30 L 284.90 899.80 L 269.50 895.80 L 254.10 891.20 L 238.30 884.80 L 233.30 882.10 L 227.10 877.90 L 221.80 872.70 L 219.60 869.60 L 217.70 866.20 L 218.30 863.20 L 220.60 857.60 L 222.90 853.70 L 225.70 850.10 L 231.90 843.40 L 241.10 840.60 L 250.30 838.20 L 259.70 836.30 L 273.80 833.90 L 330.80 827.20 L 344.90 825.00 Z" fill="#798167" fill-rule="nonzero" node-id="249" stroke="none" target-height="94.29999" target-width="587.7" target-x="217.7" target-y="825"></path></svg>